<svg id="svg" version="1.1" xmlns="http://www.w3.org/2000/svg" xmlns:xlink="http://www.w3.org/1999/xlink" width="400" height="517.6470588235294" viewBox="0, 0, 400,517.6470588235294"><g id="svgg"><path id="path0" d="M80.000 110.200 C 80.000 110.530,80.160 110.800,80.357 110.800 C 80.553 110.800,80.833 111.295,80.979 111.900 C 81.350 113.435,82.143 115.200,82.462 115.200 C 82.609 115.200,82.851 115.920,83.000 116.800 C 83.149 117.680,83.434 118.400,83.635 118.400 C 83.836 118.400,84.000 118.760,84.000 119.200 C 84.000 119.640,84.178 120.000,84.395 120.000 C 84.613 120.000,84.906 120.720,85.046 121.600 C 85.187 122.480,85.459 123.200,85.651 123.200 C 85.843 123.200,86.000 123.470,86.000 123.800 C 86.000 124.130,86.178 124.400,86.395 124.400 C 86.613 124.400,86.906 125.120,87.046 126.000 C 87.187 126.880,87.439 127.600,87.607 127.600 C 87.774 127.600,88.029 128.230,88.174 129.000 C 88.318 129.770,88.608 130.400,88.818 130.400 C 89.028 130.400,89.200 130.850,89.200 131.400 C 89.200 131.950,89.366 132.400,89.568 132.400 C 89.771 132.400,90.055 132.940,90.200 133.600 C 90.345 134.260,90.629 134.800,90.832 134.800 C 91.034 134.800,91.200 135.250,91.200 135.800 C 91.200 136.350,91.360 136.800,91.555 136.800 C 91.751 136.800,92.029 137.430,92.174 138.200 C 92.318 138.970,92.608 139.600,92.818 139.600 C 93.028 139.600,93.200 139.977,93.200 140.438 C 93.200 141.208,94.270 143.527,94.842 144.000 C 94.976 144.110,95.209 144.875,95.360 145.700 C 95.512 146.525,95.808 147.200,96.018 147.200 C 96.228 147.200,96.400 147.560,96.400 148.000 C 96.400 148.440,96.557 148.800,96.749 148.800 C 96.941 148.800,97.213 149.520,97.354 150.400 C 97.494 151.280,97.787 152.000,98.005 152.000 C 98.222 152.000,98.400 152.270,98.400 152.600 C 98.400 152.930,98.557 153.200,98.749 153.200 C 98.941 153.200,99.213 153.920,99.354 154.800 C 99.494 155.680,99.772 156.400,99.970 156.400 C 100.168 156.400,100.451 157.120,100.600 158.000 C 100.749 158.880,101.034 159.600,101.235 159.600 C 101.436 159.600,101.600 159.960,101.600 160.400 C 101.600 160.840,101.778 161.200,101.995 161.200 C 102.213 161.200,102.506 161.920,102.646 162.800 C 102.787 163.680,103.059 164.400,103.251 164.400 C 103.443 164.400,103.600 164.670,103.600 165.000 C 103.600 165.330,103.757 165.600,103.949 165.600 C 104.141 165.600,104.413 166.320,104.554 167.200 C 104.694 168.080,104.987 168.800,105.205 168.800 C 105.422 168.800,105.600 169.160,105.600 169.600 C 105.600 170.040,105.764 170.400,105.965 170.400 C 106.166 170.400,106.451 171.120,106.600 172.000 C 106.749 172.880,107.015 173.600,107.192 173.600 C 107.369 173.600,107.633 174.095,107.779 174.700 C 108.163 176.290,108.948 178.000,109.293 178.000 C 109.457 178.000,109.706 178.720,109.846 179.600 C 109.987 180.480,110.259 181.200,110.451 181.200 C 110.643 181.200,110.800 181.560,110.800 182.000 C 110.800 182.440,110.972 182.800,111.182 182.800 C 111.392 182.800,111.688 183.475,111.840 184.300 C 111.991 185.125,112.224 185.890,112.358 186.000 C 112.930 186.473,114.000 188.792,114.000 189.562 C 114.000 190.023,114.172 190.400,114.382 190.400 C 114.592 190.400,114.882 191.030,115.026 191.800 C 115.171 192.570,115.449 193.200,115.645 193.200 C 115.840 193.200,116.000 193.650,116.000 194.200 C 116.000 194.750,116.166 195.200,116.368 195.200 C 116.571 195.200,116.855 195.740,117.000 196.400 C 117.145 197.060,117.429 197.600,117.632 197.600 C 117.834 197.600,118.000 198.050,118.000 198.600 C 118.000 199.150,118.172 199.600,118.382 199.600 C 118.592 199.600,118.882 200.230,119.026 201.000 C 119.171 201.770,119.449 202.400,119.645 202.400 C 119.840 202.400,120.000 202.688,120.000 203.040 C 120.000 203.723,121.183 206.467,121.621 206.800 C 121.766 206.910,122.009 207.675,122.160 208.500 C 122.312 209.325,122.608 210.000,122.818 210.000 C 123.028 210.000,123.200 210.360,123.200 210.800 C 123.200 211.240,123.364 211.600,123.565 211.600 C 123.766 211.600,124.051 212.320,124.200 213.200 C 124.349 214.080,124.634 214.800,124.835 214.800 C 125.036 214.800,125.200 215.070,125.200 215.400 C 125.200 215.730,125.357 216.000,125.549 216.000 C 125.741 216.000,126.013 216.720,126.154 217.600 C 126.294 218.480,126.579 219.200,126.787 219.200 C 126.994 219.200,127.282 219.832,127.427 220.604 C 127.572 221.377,127.850 222.107,128.045 222.228 C 128.240 222.349,128.400 222.797,128.400 223.224 C 128.400 223.651,128.560 224.000,128.757 224.000 C 128.953 224.000,129.233 224.495,129.379 225.100 C 129.763 226.690,130.548 228.400,130.893 228.400 C 131.057 228.400,131.306 229.120,131.446 230.000 C 131.587 230.880,131.859 231.600,132.051 231.600 C 132.243 231.600,132.400 231.870,132.400 232.200 C 132.400 232.530,132.569 232.800,132.775 232.800 C 132.982 232.800,133.272 233.610,133.421 234.600 C 133.569 235.590,133.836 236.400,134.014 236.400 C 134.191 236.400,134.455 236.940,134.600 237.600 C 134.745 238.260,135.029 238.800,135.232 238.800 C 135.434 238.800,135.600 239.250,135.600 239.800 C 135.600 240.350,135.772 240.800,135.982 240.800 C 136.192 240.800,136.482 241.430,136.626 242.200 C 136.771 242.970,137.049 243.600,137.245 243.600 C 137.440 243.600,137.600 243.960,137.600 244.400 C 137.600 244.840,137.760 245.200,137.955 245.200 C 138.151 245.200,138.429 245.830,138.574 246.600 C 138.718 247.370,139.008 248.000,139.218 248.000 C 139.428 248.000,139.600 248.377,139.600 248.838 C 139.600 249.700,140.765 252.096,141.300 252.333 C 141.465 252.407,141.600 252.829,141.600 253.273 C 141.600 254.085,142.733 256.829,143.221 257.200 C 143.366 257.310,143.609 258.075,143.760 258.900 C 143.912 259.725,144.208 260.400,144.418 260.400 C 144.628 260.400,144.800 260.850,144.800 261.400 C 144.800 261.950,144.966 262.400,145.168 262.400 C 145.371 262.400,145.655 262.938,145.799 263.595 C 145.943 264.253,146.228 264.894,146.431 265.019 C 146.634 265.145,146.800 265.524,146.800 265.863 C 146.800 266.528,147.991 269.273,148.421 269.600 C 148.566 269.710,148.809 270.475,148.960 271.300 C 149.112 272.125,149.408 272.800,149.618 272.800 C 149.828 272.800,150.000 273.070,150.000 273.400 C 150.000 273.730,150.180 274.000,150.400 274.000 C 150.620 274.000,150.800 274.359,150.800 274.797 C 150.800 275.783,152.077 278.800,152.494 278.800 C 152.662 278.800,152.800 303.820,152.800 334.400 L 152.800 390.000 166.404 390.000 L 180.008 390.000 179.904 334.300 L 179.800 278.600 178.300 275.498 C 177.475 273.792,176.800 272.296,176.800 272.173 C 176.800 272.050,176.350 270.966,175.801 269.765 C 175.252 268.564,174.334 266.460,173.763 265.090 C 173.191 263.721,172.485 262.060,172.192 261.400 C 171.900 260.740,171.094 258.850,170.400 257.200 C 169.706 255.550,168.897 253.660,168.601 253.000 C 168.305 252.340,166.770 248.740,165.191 245.000 C 162.556 238.763,161.706 236.782,160.212 233.400 C 159.921 232.740,158.654 229.770,157.397 226.800 C 155.172 221.544,154.103 219.060,153.008 216.600 C 152.714 215.940,151.488 213.052,150.284 210.182 C 149.080 207.312,147.704 204.072,147.226 202.982 C 146.747 201.892,146.210 200.640,146.032 200.200 C 145.652 199.265,145.172 198.148,143.974 195.418 C 143.496 194.328,142.119 191.088,140.913 188.218 C 138.778 183.138,137.710 180.658,136.600 178.200 C 136.302 177.540,135.038 174.570,133.792 171.600 C 132.546 168.630,131.287 165.660,130.993 165.000 C 130.700 164.340,129.996 162.760,129.430 161.488 C 128.863 160.217,128.400 159.080,128.400 158.963 C 128.400 158.845,127.931 157.725,127.358 156.474 C 126.785 155.223,125.683 152.670,124.909 150.800 C 124.135 148.930,122.894 146.082,122.151 144.471 C 121.408 142.860,120.800 141.321,120.800 141.051 C 120.800 140.781,120.646 140.389,120.457 140.180 C 120.269 139.971,118.987 137.100,117.609 133.800 C 116.231 130.500,114.744 126.990,114.306 126.000 C 112.179 121.199,111.594 119.827,109.573 114.909 L 107.400 109.617 93.700 109.609 C 81.785 109.601,80.000 109.678,80.000 110.200 M220.267 109.867 C 220.120 110.013,220.000 110.553,220.000 111.067 C 220.000 111.580,219.820 112.000,219.600 112.000 C 219.380 112.000,219.199 112.405,219.198 112.900 C 219.196 113.395,218.926 114.316,218.598 114.946 C 218.269 115.576,218.000 116.341,218.000 116.646 C 218.000 116.951,217.837 117.200,217.638 117.200 C 217.438 117.200,217.151 118.100,217.000 119.200 C 216.849 120.300,216.606 121.200,216.460 121.200 C 216.064 121.200,215.191 123.347,214.927 124.970 C 214.800 125.757,214.539 126.400,214.348 126.400 C 214.156 126.400,214.000 126.816,214.000 127.324 C 214.000 127.831,213.736 128.596,213.413 129.024 C 213.090 129.451,212.820 130.205,212.813 130.700 C 212.806 131.195,212.637 131.600,212.438 131.600 C 212.238 131.600,211.951 132.500,211.800 133.600 C 211.649 134.700,211.362 135.600,211.162 135.600 C 210.963 135.600,210.800 136.050,210.800 136.600 C 210.800 137.150,210.622 137.600,210.405 137.600 C 210.187 137.600,209.894 138.320,209.754 139.200 C 209.613 140.080,209.341 140.800,209.149 140.800 C 208.957 140.800,208.800 141.250,208.800 141.800 C 208.800 142.350,208.643 142.800,208.451 142.800 C 208.259 142.800,207.987 143.520,207.846 144.400 C 207.706 145.280,207.430 146.000,207.233 146.000 C 207.036 146.000,206.751 146.900,206.600 148.000 C 206.449 149.100,206.162 150.000,205.962 150.000 C 205.763 150.000,205.600 150.450,205.600 151.000 C 205.600 151.550,205.422 152.000,205.205 152.000 C 204.987 152.000,204.694 152.720,204.554 153.600 C 204.413 154.480,204.141 155.200,203.949 155.200 C 203.757 155.200,203.600 155.650,203.600 156.200 C 203.600 156.750,203.443 157.200,203.251 157.200 C 203.059 157.200,202.787 157.920,202.646 158.800 C 202.506 159.680,202.213 160.400,201.995 160.400 C 201.778 160.400,201.600 160.839,201.600 161.376 C 201.600 161.913,201.430 162.458,201.223 162.586 C 201.016 162.714,200.725 163.624,200.578 164.609 C 200.430 165.594,200.152 166.400,199.959 166.400 C 199.767 166.400,199.494 167.120,199.354 168.000 C 199.213 168.880,198.941 169.600,198.749 169.600 C 198.557 169.600,198.400 170.050,198.400 170.600 C 198.400 171.150,198.243 171.600,198.051 171.600 C 197.859 171.600,197.587 172.320,197.446 173.200 C 197.306 174.080,197.013 174.800,196.795 174.800 C 196.578 174.800,196.400 175.250,196.400 175.800 C 196.400 176.350,196.220 176.800,196.000 176.800 C 195.005 176.800,195.676 181.314,197.220 185.000 C 197.404 185.440,198.566 188.860,199.803 192.600 C 201.040 196.340,202.207 199.760,202.397 200.200 C 202.586 200.640,203.963 204.647,205.455 209.105 C 208.391 217.874,208.515 218.041,209.687 214.783 C 210.119 213.582,211.192 210.620,212.072 208.200 C 212.952 205.780,214.090 202.630,214.600 201.200 C 215.110 199.770,216.250 196.620,217.133 194.200 C 218.016 191.780,219.478 187.730,220.382 185.200 C 221.287 182.670,222.182 180.240,222.371 179.800 C 222.560 179.360,223.018 178.100,223.389 177.000 C 223.759 175.900,224.208 174.640,224.387 174.200 C 224.566 173.760,225.292 171.780,226.000 169.800 C 226.708 167.820,227.427 165.840,227.597 165.400 C 227.766 164.960,228.360 163.340,228.916 161.800 C 229.472 160.260,230.679 156.930,231.600 154.400 C 232.520 151.870,233.690 148.630,234.200 147.200 C 234.710 145.770,235.880 142.530,236.800 140.000 C 237.720 137.470,238.890 134.230,239.400 132.800 C 240.289 130.309,241.797 126.148,245.271 116.600 C 246.152 114.180,247.036 111.887,247.236 111.505 C 248.256 109.558,248.548 109.600,234.067 109.600 C 226.623 109.600,220.413 109.720,220.267 109.867 " stroke="none" fill="#040404" fill-rule="evenodd"></path><path id="path1" d="M108.000 109.967 C 108.000 110.168,108.135 110.393,108.300 110.467 C 108.711 110.649,110.000 113.490,110.000 114.214 C 110.000 114.536,110.180 114.800,110.400 114.800 C 110.620 114.800,110.804 115.115,110.809 115.500 C 110.814 115.885,111.350 117.280,112.000 118.600 C 112.650 119.920,113.186 121.194,113.191 121.432 C 113.196 121.670,113.649 122.750,114.198 123.832 C 114.747 124.914,115.197 126.115,115.198 126.500 C 115.199 126.885,115.335 127.201,115.500 127.201 C 115.665 127.202,116.134 128.057,116.542 129.101 C 117.721 132.115,118.410 133.747,118.819 134.495 C 119.029 134.877,119.200 135.462,119.200 135.795 C 119.200 136.128,119.372 136.400,119.582 136.400 C 119.792 136.400,120.082 137.030,120.226 137.800 C 120.371 138.570,120.649 139.200,120.845 139.200 C 121.040 139.200,121.200 139.472,121.200 139.805 C 121.200 140.138,121.371 140.723,121.581 141.105 C 121.790 141.487,122.259 142.520,122.624 143.400 C 122.988 144.280,123.518 145.540,123.801 146.200 C 124.084 146.860,124.504 147.850,124.735 148.400 C 124.966 148.950,125.610 150.430,126.167 151.689 C 126.724 152.948,127.294 154.433,127.433 154.989 C 127.573 155.545,127.847 156.000,128.043 156.000 C 128.240 156.000,128.400 156.242,128.400 156.539 C 128.400 157.040,129.157 158.883,130.026 160.495 C 130.232 160.877,130.400 161.359,130.400 161.567 C 130.400 161.774,130.940 163.111,131.600 164.537 C 132.260 165.963,132.800 167.415,132.800 167.765 C 132.800 168.114,132.944 168.400,133.120 168.400 C 133.295 168.400,133.676 169.075,133.966 169.900 C 134.256 170.725,135.012 172.538,135.647 173.928 C 136.281 175.318,136.800 176.713,136.800 177.028 C 136.800 177.343,136.960 177.600,137.157 177.600 C 137.353 177.600,137.627 178.055,137.767 178.611 C 137.906 179.167,138.476 180.652,139.033 181.911 C 140.351 184.890,140.866 186.079,142.623 190.200 C 142.998 191.080,143.642 192.509,144.053 193.375 C 144.464 194.241,144.800 195.124,144.800 195.335 C 144.800 195.547,145.236 196.638,145.770 197.760 C 147.214 200.797,148.800 204.395,148.800 204.634 C 148.800 204.854,149.965 207.491,151.247 210.175 C 151.661 211.041,152.001 211.941,152.002 212.175 C 152.003 212.409,152.439 213.459,152.972 214.509 C 153.505 215.559,154.058 216.954,154.202 217.609 C 154.346 218.264,154.593 218.800,154.751 218.800 C 154.910 218.800,155.278 219.475,155.569 220.300 C 156.215 222.130,157.490 225.151,158.014 226.095 C 158.226 226.477,158.400 227.062,158.400 227.395 C 158.400 227.728,158.572 228.000,158.782 228.000 C 158.992 228.000,159.288 228.675,159.440 229.500 C 159.591 230.325,159.834 231.090,159.979 231.200 C 160.417 231.533,161.600 234.277,161.600 234.960 C 161.600 235.312,161.780 235.600,162.000 235.600 C 162.220 235.600,162.400 235.849,162.400 236.154 C 162.400 236.459,162.669 237.224,162.998 237.854 C 163.326 238.484,163.596 239.315,163.598 239.700 C 163.599 240.085,163.760 240.400,163.957 240.400 C 164.153 240.400,164.427 240.855,164.567 241.411 C 164.821 242.425,166.494 246.394,167.215 247.695 C 167.427 248.077,167.600 248.662,167.600 248.995 C 167.600 249.328,167.760 249.600,167.957 249.600 C 168.153 249.600,168.428 250.095,168.569 250.700 C 168.710 251.305,169.169 252.520,169.590 253.400 C 171.149 256.664,172.000 258.773,172.000 259.378 C 172.000 259.720,172.180 260.000,172.400 260.000 C 172.620 260.000,172.800 260.272,172.800 260.605 C 172.800 260.938,172.972 261.523,173.182 261.905 C 173.842 263.104,176.000 268.042,176.000 268.353 C 176.000 268.516,176.339 269.359,176.753 270.225 C 178.479 273.838,179.200 275.591,179.200 276.178 C 179.200 276.520,179.380 276.800,179.600 276.800 C 179.820 276.800,180.000 277.149,180.000 277.576 C 180.000 278.003,180.180 278.464,180.400 278.600 C 180.664 278.763,180.800 297.804,180.800 334.424 L 180.800 390.000 209.200 390.000 L 237.600 390.000 237.600 334.176 C 237.600 299.043,237.741 278.440,237.980 278.588 C 238.189 278.717,238.479 278.187,238.624 277.411 C 238.770 276.635,239.049 276.000,239.245 276.000 C 239.440 276.000,239.606 275.595,239.614 275.100 C 239.630 274.028,240.956 271.090,241.279 271.412 C 241.402 271.536,241.627 270.815,241.777 269.811 C 241.952 268.644,242.209 268.082,242.487 268.254 C 242.727 268.402,242.815 268.348,242.682 268.133 C 242.550 267.918,242.691 267.261,242.997 266.671 C 243.302 266.082,243.476 265.600,243.383 265.600 C 243.290 265.600,243.571 264.965,244.007 264.188 C 244.443 263.411,244.800 262.511,244.800 262.188 C 244.800 261.865,244.972 261.600,245.182 261.600 C 245.392 261.600,245.682 260.972,245.826 260.204 C 245.970 259.435,246.228 258.894,246.399 258.999 C 246.570 259.105,246.828 258.410,246.971 257.454 C 247.114 256.499,247.629 255.290,248.116 254.768 C 248.602 254.246,248.941 253.767,248.870 253.703 C 248.595 253.458,249.282 251.200,249.632 251.200 C 249.834 251.200,250.000 250.930,250.000 250.600 C 250.000 250.270,250.169 250.000,250.375 250.000 C 250.581 250.000,250.731 249.685,250.708 249.300 C 250.684 248.915,251.091 247.700,251.612 246.600 C 252.133 245.500,252.584 244.510,252.614 244.400 C 252.797 243.733,253.340 242.456,253.831 241.538 C 254.144 240.954,254.400 240.099,254.400 239.638 C 254.400 239.177,254.559 238.800,254.753 238.800 C 255.097 238.800,255.730 237.304,255.643 236.700 C 255.619 236.535,255.780 236.400,256.000 236.400 C 256.220 236.400,256.355 236.256,256.300 236.080 C 256.139 235.563,257.317 232.800,257.698 232.800 C 257.890 232.800,257.944 232.632,257.817 232.428 C 257.691 232.223,257.770 231.942,257.993 231.804 C 258.217 231.666,258.400 231.113,258.400 230.576 C 258.400 230.039,258.580 229.600,258.800 229.600 C 259.020 229.600,259.200 229.299,259.200 228.931 C 259.200 228.564,259.515 227.903,259.900 227.463 C 260.285 227.023,260.380 226.791,260.110 226.949 C 259.841 227.106,260.087 226.282,260.658 225.117 C 261.229 223.953,261.879 222.550,262.104 222.000 C 262.987 219.837,263.813 218.194,264.078 218.074 C 264.230 218.005,264.265 217.713,264.155 217.426 C 264.044 217.138,264.247 216.610,264.606 216.252 C 264.964 215.893,265.118 215.600,264.949 215.600 C 264.779 215.600,264.856 215.384,265.120 215.120 C 265.384 214.856,265.600 214.316,265.600 213.920 C 265.600 213.524,265.764 213.200,265.965 213.200 C 266.166 213.200,266.451 212.480,266.600 211.600 C 266.749 210.720,267.034 210.000,267.235 210.000 C 267.436 210.000,267.579 209.865,267.553 209.700 C 267.433 208.940,267.632 208.373,267.950 208.569 C 268.143 208.688,268.415 208.069,268.555 207.193 C 268.695 206.317,268.987 205.600,269.205 205.600 C 269.422 205.600,269.600 205.240,269.600 204.800 C 269.600 204.360,269.780 204.000,270.000 204.000 C 270.220 204.000,270.370 203.865,270.334 203.700 C 270.209 203.126,270.899 200.993,271.533 200.000 C 271.883 199.450,272.196 198.820,272.228 198.600 C 272.371 197.602,272.925 196.400,273.242 196.400 C 273.434 196.400,273.706 195.680,273.846 194.800 C 273.987 193.920,274.259 193.200,274.451 193.200 C 274.643 193.200,274.800 192.851,274.800 192.424 C 274.800 191.997,274.983 191.534,275.207 191.396 C 275.430 191.258,275.517 190.990,275.400 190.800 C 275.283 190.610,275.370 190.342,275.593 190.204 C 275.817 190.066,276.000 189.603,276.000 189.176 C 276.000 188.749,276.180 188.400,276.400 188.400 C 276.620 188.400,276.800 188.130,276.800 187.800 C 276.800 187.470,276.964 187.200,277.165 187.200 C 277.366 187.200,277.651 186.480,277.800 185.600 C 277.949 184.720,278.234 184.000,278.435 184.000 C 278.636 184.000,278.762 183.865,278.715 183.700 C 278.668 183.535,278.855 182.995,279.129 182.500 C 279.404 182.005,279.496 181.600,279.334 181.600 C 279.172 181.600,279.256 181.384,279.520 181.120 C 279.784 180.856,280.000 180.316,280.000 179.920 C 280.000 179.524,280.160 179.200,280.357 179.200 C 280.553 179.200,280.834 178.717,280.983 178.127 C 281.131 177.537,281.614 176.322,282.056 175.427 C 282.498 174.532,282.947 173.354,283.054 172.809 C 283.161 172.263,283.373 171.723,283.524 171.609 C 283.977 171.266,285.199 168.427,285.213 167.686 C 285.220 167.309,285.490 166.651,285.813 166.224 C 286.136 165.796,286.400 165.111,286.400 164.700 C 286.400 164.237,286.576 164.061,286.862 164.238 C 287.121 164.399,287.216 164.349,287.078 164.126 C 286.943 163.907,287.185 163.070,287.616 162.266 C 288.047 161.461,288.400 160.532,288.400 160.201 C 288.400 159.871,288.580 159.600,288.800 159.600 C 289.020 159.600,289.200 159.251,289.200 158.824 C 289.200 158.397,289.366 157.945,289.569 157.819 C 289.772 157.694,290.057 157.053,290.201 156.395 C 290.345 155.738,290.629 155.200,290.832 155.200 C 291.034 155.200,291.200 154.750,291.200 154.200 C 291.200 153.650,291.391 153.200,291.624 153.200 C 291.857 153.200,291.956 153.052,291.844 152.872 C 291.733 152.691,291.982 151.984,292.397 151.301 C 292.813 150.617,293.273 149.415,293.421 148.629 C 293.568 147.843,293.849 147.200,294.045 147.200 C 294.240 147.200,294.400 146.829,294.400 146.376 C 294.400 145.923,294.550 145.645,294.733 145.759 C 294.917 145.872,295.067 145.717,295.067 145.415 C 295.067 144.456,296.450 141.200,296.857 141.200 C 297.071 141.200,297.163 141.064,297.060 140.898 C 296.958 140.731,297.217 139.889,297.637 139.026 C 298.057 138.163,298.400 137.219,298.400 136.929 C 298.400 136.638,298.595 136.400,298.833 136.400 C 299.072 136.400,299.191 136.175,299.099 135.900 C 299.006 135.625,299.351 134.645,299.865 133.723 C 300.379 132.801,300.800 131.710,300.800 131.298 C 300.800 130.887,301.115 130.202,301.500 129.775 C 301.885 129.349,302.261 128.649,302.336 128.220 C 302.544 127.028,303.750 124.400,304.090 124.400 C 304.255 124.400,304.506 123.680,304.646 122.800 C 304.787 121.920,305.059 121.200,305.251 121.200 C 305.443 121.200,305.606 120.885,305.613 120.500 C 305.620 120.115,305.890 119.451,306.213 119.024 C 306.536 118.596,306.800 117.921,306.800 117.524 C 306.800 117.126,306.964 116.800,307.165 116.800 C 307.366 116.800,307.651 116.079,307.800 115.198 C 307.949 114.317,308.235 113.698,308.435 113.822 C 308.636 113.946,308.800 113.602,308.800 113.057 C 308.800 112.512,308.967 112.007,309.170 111.933 C 309.374 111.860,309.664 111.305,309.814 110.700 L 310.087 109.600 279.261 109.600 L 248.436 109.600 248.174 111.000 C 248.029 111.770,247.771 112.400,247.600 112.400 C 247.429 112.400,247.167 113.052,247.017 113.849 C 246.868 114.646,246.549 115.681,246.310 116.149 C 245.462 117.808,245.298 118.242,245.005 119.613 C 244.841 120.376,244.586 121.180,244.438 121.400 C 244.289 121.620,243.822 122.880,243.399 124.200 C 242.977 125.520,242.517 126.690,242.378 126.800 C 242.239 126.910,242.012 127.584,241.873 128.298 C 241.735 129.011,241.269 130.324,240.838 131.215 C 240.408 132.106,239.931 133.406,239.777 134.104 C 239.624 134.802,239.341 135.695,239.149 136.087 C 238.957 136.479,238.632 137.138,238.427 137.551 C 238.222 137.964,237.932 138.954,237.783 139.751 C 237.633 140.548,237.351 141.200,237.155 141.200 C 236.960 141.200,236.800 141.578,236.800 142.040 C 236.800 142.785,236.127 144.645,235.217 146.413 C 235.044 146.750,234.766 147.644,234.600 148.400 C 234.434 149.156,234.156 150.050,233.983 150.387 C 233.163 151.981,232.400 153.980,232.400 154.537 C 232.400 154.876,232.220 155.264,232.000 155.400 C 231.780 155.536,231.600 155.990,231.600 156.410 C 231.600 156.830,231.305 157.854,230.945 158.686 C 230.138 160.549,229.868 161.260,229.005 163.800 C 228.631 164.900,228.072 166.367,227.762 167.060 C 227.453 167.754,227.200 168.699,227.200 169.160 C 227.200 169.622,227.020 170.000,226.800 170.000 C 226.580 170.000,226.400 170.450,226.400 171.000 C 226.400 171.550,226.240 172.000,226.045 172.000 C 225.849 172.000,225.563 172.675,225.409 173.500 C 225.255 174.325,225.002 175.180,224.848 175.400 C 224.694 175.620,224.228 176.880,223.813 178.200 C 223.398 179.520,222.910 180.771,222.729 180.980 C 222.548 181.189,222.399 181.639,222.398 181.980 C 222.396 182.321,222.126 183.116,221.798 183.746 C 221.469 184.376,221.200 185.231,221.200 185.646 C 221.200 186.061,221.020 186.400,220.800 186.400 C 220.580 186.400,220.400 186.778,220.400 187.240 C 220.400 187.995,219.708 189.896,218.794 191.651 C 218.607 192.009,218.332 192.956,218.182 193.755 C 218.032 194.555,217.750 195.307,217.555 195.428 C 217.360 195.549,217.199 195.952,217.198 196.324 C 217.196 196.696,216.926 197.516,216.598 198.146 C 216.269 198.776,216.000 199.631,216.000 200.046 C 216.000 200.461,215.820 200.800,215.600 200.800 C 215.380 200.800,215.199 201.205,215.198 201.700 C 215.196 202.195,214.926 203.116,214.598 203.746 C 214.269 204.376,214.000 205.141,214.000 205.446 C 214.000 205.751,213.843 206.000,213.651 206.000 C 213.459 206.000,213.186 206.728,213.044 207.617 C 212.901 208.507,212.623 209.542,212.426 209.917 C 211.693 211.312,210.800 213.535,210.800 213.966 C 210.800 214.211,210.635 214.723,210.433 215.105 C 210.232 215.487,209.850 216.385,209.585 217.100 C 208.819 219.166,207.852 218.790,207.009 216.100 C 206.224 213.597,205.698 212.177,205.161 211.117 C 204.971 210.742,204.699 209.707,204.556 208.817 C 204.414 207.928,204.161 207.200,203.994 207.200 C 203.827 207.200,203.601 206.705,203.491 206.100 C 203.278 204.926,202.511 202.640,201.954 201.517 C 201.768 201.142,201.499 200.107,201.356 199.217 C 201.214 198.328,200.941 197.600,200.749 197.600 C 200.557 197.600,200.400 197.251,200.400 196.824 C 200.400 196.397,200.236 195.946,200.035 195.822 C 199.834 195.697,199.548 194.878,199.400 194.002 C 199.252 193.125,198.798 191.718,198.391 190.877 C 197.985 190.035,197.536 188.818,197.395 188.173 C 197.253 187.528,196.991 186.640,196.811 186.200 C 195.643 183.337,195.147 181.395,195.206 179.906 C 195.317 177.112,195.222 176.339,194.800 176.600 C 194.575 176.739,194.400 176.419,194.400 175.869 C 194.400 175.331,194.131 174.376,193.802 173.746 C 193.474 173.116,193.204 172.105,193.202 171.500 C 193.201 170.895,193.020 170.400,192.800 170.400 C 192.580 170.400,192.400 169.986,192.400 169.480 C 192.400 168.974,192.184 168.344,191.920 168.080 C 191.656 167.816,191.563 167.600,191.713 167.600 C 191.863 167.600,191.651 167.002,191.241 166.272 C 190.830 165.542,190.368 164.193,190.213 163.274 C 190.057 162.356,189.766 161.503,189.565 161.378 C 189.364 161.254,189.200 160.713,189.200 160.176 C 189.200 159.639,189.037 159.200,188.838 159.200 C 188.638 159.200,188.351 158.300,188.200 157.200 C 188.049 156.099,187.782 155.288,187.607 155.396 C 187.433 155.504,187.191 155.099,187.070 154.496 C 186.472 151.508,185.745 149.188,185.488 149.446 C 185.329 149.604,185.200 149.174,185.200 148.490 C 185.200 147.807,185.028 147.141,184.817 147.011 C 184.607 146.881,184.536 146.510,184.660 146.187 C 184.784 145.864,184.686 145.600,184.443 145.600 C 184.199 145.600,184.000 145.150,184.000 144.600 C 184.000 144.050,183.826 143.600,183.614 143.600 C 183.401 143.600,183.109 142.703,182.963 141.608 C 182.818 140.512,182.542 139.712,182.349 139.831 C 182.157 139.950,182.000 139.677,182.000 139.224 C 182.000 138.771,181.837 138.400,181.638 138.400 C 181.438 138.400,181.151 137.500,181.000 136.400 C 180.849 135.300,180.582 134.400,180.408 134.400 C 180.234 134.400,179.970 133.594,179.822 132.609 C 179.675 131.624,179.384 130.714,179.177 130.586 C 178.970 130.458,178.800 129.913,178.800 129.376 C 178.800 128.839,178.631 128.400,178.425 128.400 C 178.218 128.400,177.927 127.588,177.778 126.595 C 177.629 125.602,177.348 124.692,177.154 124.571 C 176.959 124.451,176.800 123.903,176.800 123.353 C 176.800 122.788,176.626 122.460,176.400 122.600 C 176.171 122.742,175.994 122.368,175.986 121.724 C 175.978 121.106,175.714 120.150,175.400 119.600 C 175.086 119.050,174.822 118.195,174.814 117.700 C 174.806 117.205,174.643 116.800,174.451 116.800 C 174.134 116.800,173.401 113.817,173.541 113.100 C 173.574 112.935,173.420 112.800,173.200 112.800 C 172.980 112.800,172.800 112.350,172.800 111.800 C 172.800 111.250,172.626 110.800,172.413 110.800 C 172.199 110.800,172.129 110.530,172.255 110.200 C 172.459 109.670,168.739 109.600,140.243 109.600 C 120.968 109.600,108.000 109.747,108.000 109.967 " stroke="none" fill="#fcdc44" fill-rule="evenodd"></path><path id="path2" d="" stroke="none" fill="#847c44" fill-rule="evenodd"></path><path id="path3" d="M244.844 117.644 C 244.598 118.351,244.466 119.000,244.552 119.085 C 244.638 119.171,244.909 118.662,245.156 117.956 C 245.402 117.249,245.534 116.600,245.448 116.515 C 245.362 116.429,245.091 116.938,244.844 117.644 M225.244 171.644 C 224.998 172.351,224.866 173.000,224.952 173.085 C 225.038 173.171,225.309 172.662,225.556 171.956 C 225.802 171.249,225.934 170.600,225.848 170.515 C 225.762 170.429,225.491 170.938,225.244 171.644 M199.029 191.200 C 199.176 191.750,199.464 192.470,199.667 192.800 C 199.925 193.217,199.957 193.095,199.771 192.400 C 199.624 191.850,199.336 191.130,199.133 190.800 C 198.875 190.383,198.843 190.505,199.029 191.200 M180.000 334.520 L 180.200 390.200 180.301 334.821 C 180.357 304.363,180.267 279.307,180.101 279.141 C 179.936 278.976,179.890 303.896,180.000 334.520 " stroke="none" fill="#746c3c" fill-rule="evenodd"></path><path id="path4" d="" stroke="none" fill="#9d8a44" fill-rule="evenodd"></path><path id="path5" d="M112.467 120.420 C 112.701 121.092,112.967 121.567,113.057 121.476 C 113.256 121.278,112.501 119.200,112.231 119.200 C 112.127 119.200,112.233 119.749,112.467 120.420 M241.244 129.244 C 240.998 129.951,240.866 130.600,240.952 130.685 C 241.038 130.771,241.309 130.262,241.556 129.556 C 241.802 128.849,241.934 128.200,241.848 128.115 C 241.762 128.029,241.491 128.538,241.244 129.244 M236.067 143.580 C 235.833 144.251,235.727 144.800,235.831 144.800 C 236.101 144.800,236.856 142.722,236.657 142.524 C 236.567 142.433,236.301 142.908,236.067 143.580 M197.429 188.400 C 197.576 188.950,197.864 189.670,198.067 190.000 C 198.325 190.417,198.357 190.295,198.171 189.600 C 198.024 189.050,197.736 188.330,197.533 188.000 C 197.275 187.583,197.243 187.705,197.429 188.400 M219.667 188.780 C 219.433 189.451,219.327 190.000,219.431 190.000 C 219.701 190.000,220.456 187.922,220.257 187.724 C 220.167 187.633,219.901 188.108,219.667 188.780 M214.467 203.180 C 214.233 203.851,214.127 204.400,214.231 204.400 C 214.501 204.400,215.256 202.322,215.057 202.124 C 214.967 202.033,214.701 202.508,214.467 203.180 M204.706 209.818 C 204.810 210.365,205.028 210.894,205.190 210.994 C 205.352 211.094,205.399 210.729,205.294 210.182 C 205.190 209.635,204.972 209.106,204.810 209.006 C 204.648 208.906,204.601 209.271,204.706 209.818 M206.629 215.200 C 206.776 215.750,207.064 216.470,207.267 216.800 C 207.525 217.217,207.557 217.095,207.371 216.400 C 207.224 215.850,206.936 215.130,206.733 214.800 C 206.475 214.383,206.443 214.505,206.629 215.200 M155.418 220.900 C 155.568 221.395,155.855 221.976,156.056 222.191 C 156.257 222.406,156.219 222.001,155.972 221.291 C 155.465 219.838,154.997 219.508,155.418 220.900 M180.400 334.320 L 180.600 390.200 180.701 334.621 C 180.757 304.053,180.667 278.907,180.501 278.741 C 180.336 278.576,180.290 303.586,180.400 334.320 " stroke="none" fill="#e5ca4c" fill-rule="evenodd"></path><path id="path6" d="" stroke="none" fill="#bca44c" fill-rule="evenodd"></path><path id="path7" d="" stroke="none" fill="#100c424" fill-rule="evenodd"></path><path id="path8" d="" stroke="none" fill="#100c424" fill-rule="evenodd"></path></g></svg>