<svg id="svg" version="1.1" xmlns="http://www.w3.org/2000/svg" xmlns:xlink="http://www.w3.org/1999/xlink" width="400" height="517.6470588235294" viewBox="0, 0, 400,517.6470588235294"><g id="svgg"><path id="path0" d="M38.800 224.806 C 38.800 225.030,38.125 225.525,37.300 225.906 C 34.210 227.335,33.532 229.406,35.574 231.177 C 35.999 231.546,36.471 232.344,36.624 232.952 C 36.776 233.559,37.238 234.267,37.650 234.524 C 38.063 234.782,38.400 235.300,38.400 235.676 C 38.400 236.052,38.625 236.504,38.900 236.680 C 39.175 236.856,39.712 237.675,40.094 238.500 C 40.475 239.325,40.970 240.000,41.194 240.000 C 41.417 240.000,41.600 240.366,41.600 240.813 C 41.600 241.259,41.870 241.729,42.200 241.855 C 42.530 241.982,42.800 242.426,42.800 242.843 C 42.800 243.259,42.980 243.600,43.200 243.600 C 43.420 243.600,43.600 243.876,43.600 244.213 C 43.600 244.549,43.870 244.929,44.200 245.055 C 44.530 245.182,44.800 245.607,44.800 246.000 C 44.800 246.393,45.070 246.818,45.400 246.945 C 45.730 247.071,46.000 247.541,46.000 247.987 C 46.000 248.434,46.159 248.800,46.353 248.800 C 46.548 248.800,46.812 249.115,46.942 249.500 C 47.211 250.301,47.970 251.515,48.700 252.312 C 48.975 252.612,49.200 253.032,49.200 253.245 C 49.200 253.459,49.567 254.027,50.015 254.509 C 50.464 254.990,50.934 255.793,51.059 256.292 C 51.184 256.791,51.447 257.200,51.643 257.200 C 51.842 257.200,52.000 261.279,52.000 266.400 L 52.000 275.600 57.053 275.600 C 61.477 275.600,62.187 275.508,62.753 274.857 C 63.109 274.449,63.805 273.987,64.300 273.830 C 64.795 273.674,65.200 273.378,65.200 273.173 C 65.200 272.968,65.451 272.800,65.757 272.800 C 66.201 272.800,66.800 272.012,66.800 271.427 C 66.800 271.368,65.464 271.406,63.832 271.511 C 62.200 271.615,60.220 271.580,59.432 271.432 L 58.000 271.164 58.000 261.972 L 58.000 252.780 56.332 250.090 C 55.414 248.611,54.442 247.130,54.171 246.800 C 53.901 246.470,53.184 245.300,52.579 244.200 C 51.974 243.100,50.547 240.760,49.408 239.000 C 46.709 234.829,45.012 232.131,44.000 230.400 C 43.549 229.630,42.728 228.280,42.173 227.400 C 41.619 226.520,41.063 225.485,40.936 225.100 C 40.693 224.357,38.800 224.097,38.800 224.806 M72.800 224.806 C 72.800 225.030,72.125 225.522,71.300 225.899 C 69.531 226.709,67.901 228.359,67.006 230.245 C 66.652 230.990,66.199 231.600,65.999 231.600 C 65.800 231.600,65.518 232.230,65.374 233.000 C 65.229 233.770,64.951 234.400,64.755 234.400 C 64.560 234.400,64.400 234.670,64.400 235.000 C 64.400 235.330,64.223 235.600,64.008 235.600 C 63.792 235.600,63.502 236.050,63.364 236.600 C 63.226 237.150,62.953 237.600,62.757 237.600 C 62.560 237.600,62.400 237.870,62.400 238.200 C 62.400 238.530,62.232 238.800,62.027 238.800 C 61.822 238.800,61.528 239.205,61.373 239.700 C 61.219 240.195,60.917 240.712,60.704 240.850 C 60.242 241.147,61.371 243.714,62.302 244.482 C 62.774 244.872,62.970 244.882,63.090 244.525 C 63.178 244.263,64.139 242.586,65.225 240.798 C 66.311 239.010,67.200 237.472,67.200 237.380 C 67.200 237.289,67.948 235.996,68.863 234.507 C 74.182 225.846,74.860 224.400,73.600 224.400 C 73.160 224.400,72.800 224.583,72.800 224.806 M265.600 225.488 C 264.610 226.055,263.740 226.672,263.667 226.860 C 263.593 227.047,263.278 227.200,262.967 227.200 C 262.655 227.200,262.400 227.470,262.400 227.800 C 262.400 228.130,262.220 228.400,262.000 228.400 C 261.780 228.400,261.600 228.760,261.600 229.200 C 261.600 229.640,261.780 230.000,262.000 230.000 C 262.220 230.000,262.400 230.540,262.400 231.200 C 262.400 231.860,262.566 232.400,262.768 232.400 C 262.971 232.400,263.261 233.568,263.414 234.995 C 263.567 236.422,263.851 237.492,264.046 237.372 C 264.241 237.251,264.400 237.693,264.400 238.353 C 264.400 239.013,264.572 239.659,264.782 239.789 C 264.991 239.918,265.285 241.099,265.433 242.412 C 265.582 243.725,265.839 244.800,266.006 244.800 C 266.172 244.800,266.431 245.787,266.582 246.994 C 266.733 248.200,267.023 249.291,267.228 249.417 C 267.433 249.544,267.600 250.267,267.600 251.024 C 267.600 251.781,267.763 252.400,267.962 252.400 C 268.290 252.400,269.055 256.175,268.875 256.900 C 268.834 257.065,268.980 257.200,269.200 257.200 C 269.420 257.200,269.600 257.639,269.600 258.176 C 269.600 258.713,269.756 259.249,269.947 259.367 C 270.138 259.486,270.417 260.666,270.567 261.991 C 270.717 263.316,271.011 264.400,271.220 264.400 C 271.429 264.400,271.600 264.940,271.600 265.600 C 271.600 266.260,271.759 266.800,271.953 266.800 C 272.148 266.800,272.432 267.970,272.585 269.400 C 272.738 270.830,273.029 272.000,273.232 272.000 C 273.434 272.000,273.600 272.525,273.600 273.167 C 273.600 275.600,273.599 275.600,279.443 275.600 C 282.748 275.600,284.800 275.447,284.800 275.200 C 284.800 274.980,285.070 274.800,285.400 274.800 C 285.730 274.800,286.000 274.661,286.000 274.491 C 286.000 274.321,286.675 273.826,287.500 273.392 C 288.903 272.653,290.000 271.833,290.000 271.522 C 290.000 271.448,288.065 271.443,285.700 271.511 C 280.673 271.656,280.486 271.569,279.740 268.748 C 279.428 267.567,278.468 263.900,277.607 260.600 C 276.746 257.300,275.224 251.540,274.226 247.800 C 273.228 244.060,271.939 239.200,271.362 237.000 C 270.784 234.800,270.045 232.010,269.719 230.800 C 269.393 229.590,268.941 227.880,268.716 227.000 C 268.064 224.456,268.041 224.399,267.713 224.429 C 267.541 224.444,266.590 224.921,265.600 225.488 M293.200 224.706 C 293.200 224.874,292.480 225.323,291.600 225.704 C 290.720 226.086,290.000 226.578,290.000 226.799 C 290.000 227.019,289.642 227.200,289.205 227.200 C 288.586 227.200,288.353 227.556,288.154 228.800 C 288.013 229.680,287.755 230.400,287.581 230.400 C 287.406 230.400,287.138 231.570,286.985 233.000 C 286.832 234.430,286.548 235.600,286.353 235.600 C 286.159 235.600,286.000 236.050,286.000 236.600 C 286.000 237.150,285.820 237.600,285.600 237.600 C 285.380 237.600,285.231 237.735,285.269 237.900 C 285.444 238.654,284.669 242.800,284.354 242.800 C 284.159 242.800,284.000 243.430,284.000 244.200 C 284.000 244.970,283.843 245.600,283.652 245.600 C 282.418 245.600,283.271 254.435,284.886 258.400 C 285.321 259.465,285.696 258.539,286.752 253.800 C 286.948 252.920,287.411 251.120,287.781 249.800 C 288.151 248.480,289.061 245.060,289.802 242.200 C 290.544 239.340,291.441 235.920,291.796 234.600 C 294.714 223.751,294.587 224.400,293.800 224.400 C 293.470 224.400,293.200 224.538,293.200 224.706 M319.200 224.753 C 319.200 224.948,318.885 225.226,318.500 225.371 C 317.185 225.867,316.000 226.589,316.000 226.895 C 316.000 227.063,315.730 227.200,315.400 227.200 C 315.070 227.200,314.800 227.470,314.800 227.800 C 314.800 228.130,314.639 228.400,314.442 228.400 C 314.245 228.400,313.993 229.075,313.883 229.900 C 313.470 232.972,312.629 236.800,312.365 236.800 C 312.216 236.800,311.968 237.970,311.815 239.400 C 311.662 240.830,311.371 242.000,311.168 242.000 C 310.966 242.000,310.800 242.615,310.800 243.367 C 310.800 244.118,310.598 244.801,310.352 244.883 C 309.647 245.118,309.735 251.079,310.478 253.400 C 310.830 254.500,311.349 256.287,311.631 257.372 C 312.271 259.832,312.422 259.488,314.417 251.000 C 314.883 249.020,315.413 246.770,315.596 246.000 C 315.778 245.230,316.200 243.430,316.533 242.000 C 317.250 238.914,318.671 233.168,319.203 231.200 C 319.689 229.399,320.800 224.786,320.800 224.568 C 320.800 224.475,320.440 224.400,320.000 224.400 C 319.560 224.400,319.200 224.559,319.200 224.753 M119.457 227.800 C 119.127 228.130,118.664 228.400,118.429 228.400 C 118.193 228.400,118.000 228.580,118.000 228.800 C 118.000 229.020,117.758 229.200,117.461 229.200 C 115.836 229.200,115.200 230.591,115.200 234.147 C 115.200 236.950,115.087 237.600,114.600 237.600 C 114.270 237.600,114.000 237.780,114.000 238.000 C 114.000 238.220,113.743 238.400,113.429 238.400 C 112.022 238.400,111.600 239.562,111.600 243.429 L 111.600 247.200 113.400 247.200 L 115.200 247.200 115.200 259.000 C 115.200 266.600,115.342 270.800,115.600 270.800 C 115.820 270.800,116.000 271.250,116.000 271.800 C 116.000 272.350,116.160 272.800,116.357 272.800 C 116.553 272.800,116.826 273.250,116.964 273.800 C 117.122 274.427,117.498 274.800,117.974 274.800 C 118.392 274.800,118.808 275.025,118.900 275.300 C 119.023 275.670,120.609 275.800,125.000 275.800 C 129.391 275.800,130.977 275.670,131.100 275.300 C 131.192 275.025,131.522 274.800,131.833 274.800 C 132.145 274.800,132.400 274.640,132.400 274.443 C 132.400 274.247,132.850 273.974,133.400 273.836 C 133.950 273.698,134.400 273.408,134.400 273.192 C 134.400 272.977,134.593 272.800,134.829 272.800 C 135.064 272.800,135.493 272.564,135.781 272.276 C 136.213 271.844,135.523 271.779,131.852 271.905 C 122.422 272.229,121.624 270.842,121.610 254.100 L 121.600 243.200 118.800 243.200 L 116.000 243.200 116.000 240.218 L 116.000 237.237 118.700 237.118 L 121.400 237.000 121.512 232.100 C 121.632 226.882,121.225 226.032,119.457 227.800 M81.043 230.233 C 80.667 231.211,80.749 231.308,81.400 230.657 C 82.080 229.977,82.167 229.600,81.643 229.600 C 81.446 229.600,81.176 229.885,81.043 230.233 M327.600 231.800 C 327.600 232.130,327.780 232.400,328.000 232.400 C 328.220 232.400,328.400 232.130,328.400 231.800 C 328.400 231.470,328.220 231.200,328.000 231.200 C 327.780 231.200,327.600 231.470,327.600 231.800 M77.843 235.433 C 77.467 236.411,77.549 236.508,78.200 235.857 C 78.880 235.177,78.967 234.800,78.443 234.800 C 78.246 234.800,77.976 235.085,77.843 235.433 M326.400 236.200 C 326.400 236.530,326.580 236.800,326.800 236.800 C 327.020 236.800,327.200 236.530,327.200 236.200 C 327.200 235.870,327.020 235.600,326.800 235.600 C 326.580 235.600,326.400 235.870,326.400 236.200 M80.393 237.527 C 79.631 238.391,76.637 240.000,75.792 240.000 C 74.932 240.000,73.865 241.069,74.397 241.398 C 74.619 241.535,74.800 241.457,74.800 241.224 C 74.800 240.991,74.966 240.800,75.168 240.800 C 75.383 240.800,75.602 246.609,75.692 254.700 C 75.845 268.460,76.078 270.784,77.300 270.797 C 77.465 270.799,77.600 271.055,77.600 271.366 C 77.600 272.099,79.891 274.430,81.370 275.200 C 82.894 275.994,94.040 276.080,94.300 275.300 C 94.392 275.025,94.722 274.800,95.033 274.800 C 95.345 274.800,95.600 274.641,95.600 274.447 C 95.600 274.252,96.050 274.007,96.600 273.902 C 97.438 273.742,97.600 273.864,97.600 274.655 C 97.600 275.593,97.632 275.600,102.200 275.600 C 105.000 275.600,106.800 275.443,106.800 275.200 C 106.800 274.980,107.070 274.800,107.400 274.800 C 107.730 274.800,108.000 274.620,108.000 274.400 C 108.000 274.180,108.366 274.000,108.813 274.000 C 109.259 274.000,109.729 273.730,109.855 273.400 C 109.982 273.070,110.407 272.800,110.800 272.800 C 111.365 272.800,112.000 272.080,112.000 271.439 C 112.000 271.386,110.498 271.422,108.661 271.519 C 104.378 271.743,103.601 271.370,103.598 269.086 L 103.596 267.400 102.698 268.492 C 98.956 273.044,89.206 273.214,84.796 268.804 C 81.793 265.801,81.601 264.681,81.594 250.165 C 81.588 237.560,81.469 236.307,80.393 237.527 M176.800 237.200 C 176.800 237.420,176.530 237.600,176.200 237.600 C 175.870 237.600,175.600 237.780,175.600 238.000 C 175.600 238.220,175.343 238.400,175.029 238.400 C 174.714 238.400,174.212 238.625,173.912 238.900 C 173.612 239.175,173.014 239.602,172.583 239.850 C 171.840 240.277,171.806 240.707,171.924 248.350 L 172.049 256.400 159.573 256.400 L 147.098 256.400 147.369 258.100 C 147.763 260.564,147.528 260.512,157.468 260.302 C 166.005 260.121,168.908 259.759,169.600 258.788 C 171.550 256.053,172.308 260.044,170.506 263.555 C 166.403 271.547,156.641 274.360,147.640 270.143 C 137.883 265.572,136.398 248.397,145.074 240.489 C 145.865 239.769,146.387 239.054,146.234 238.901 C 146.082 238.748,145.831 238.819,145.678 239.058 C 145.525 239.297,144.995 239.619,144.500 239.773 C 144.005 239.928,143.600 240.222,143.600 240.427 C 143.600 240.632,143.259 240.800,142.843 240.800 C 142.426 240.800,141.982 241.070,141.855 241.400 C 141.729 241.730,141.412 242.000,141.152 242.000 C 140.567 242.000,136.400 246.187,136.400 246.774 C 136.400 247.008,136.220 247.200,136.000 247.200 C 135.780 247.200,135.600 247.560,135.600 248.000 C 135.600 248.440,135.434 248.800,135.232 248.800 C 135.029 248.800,134.745 249.340,134.600 250.000 C 134.455 250.660,134.209 251.200,134.053 251.200 C 133.574 251.200,133.398 253.557,133.435 259.480 L 133.471 265.159 132.435 265.320 C 131.866 265.408,132.435 265.507,133.700 265.540 C 135.927 265.598,136.000 265.635,136.002 266.700 C 136.008 269.356,137.803 272.800,139.182 272.800 C 139.412 272.800,139.600 272.977,139.600 273.192 C 139.600 273.408,140.050 273.698,140.600 273.836 C 141.150 273.974,141.600 274.203,141.600 274.346 C 141.600 275.713,157.454 276.641,157.900 275.300 C 157.992 275.025,158.322 274.800,158.633 274.800 C 158.945 274.800,159.200 274.640,159.200 274.443 C 159.200 274.247,159.684 273.965,160.276 273.817 C 160.868 273.668,161.633 273.224,161.976 272.830 C 162.319 272.437,163.005 271.987,163.500 271.830 C 163.995 271.674,164.400 271.398,164.400 271.216 C 164.400 271.035,164.864 270.770,165.431 270.628 C 166.529 270.353,169.600 267.555,169.600 266.831 C 169.600 266.594,169.772 266.400,169.982 266.400 C 170.192 266.400,170.482 265.770,170.626 265.000 C 171.195 261.969,171.600 263.883,171.600 269.600 L 171.600 275.600 176.173 275.600 C 180.298 275.600,180.769 275.526,180.985 274.848 C 181.123 274.413,181.749 273.990,182.466 273.847 C 183.149 273.710,184.059 273.194,184.490 272.699 L 185.272 271.800 181.536 271.600 L 177.800 271.400 177.696 254.100 C 177.629 243.027,177.449 236.800,177.196 236.800 C 176.978 236.800,176.800 236.980,176.800 237.200 M237.125 237.656 C 236.487 238.455,236.496 238.563,237.300 239.650 C 238.403 241.141,238.400 241.143,238.400 238.800 C 238.400 236.607,238.145 236.379,237.125 237.656 M331.600 237.200 C 331.600 237.420,331.330 237.600,331.000 237.600 C 330.670 237.600,330.400 237.780,330.400 238.000 C 330.400 238.220,330.143 238.400,329.829 238.400 C 329.514 238.400,329.011 238.646,328.710 238.947 C 328.409 239.248,327.766 239.620,327.281 239.774 L 326.400 240.054 326.400 254.227 C 326.400 262.024,326.557 268.400,326.749 268.400 C 326.941 268.400,327.213 269.120,327.354 270.000 C 327.494 270.880,327.749 271.600,327.918 271.600 C 328.088 271.600,328.546 272.140,328.936 272.800 C 329.326 273.460,329.921 274.000,330.258 274.000 C 330.596 274.000,331.200 274.405,331.600 274.900 C 332.731 276.297,344.469 276.294,345.602 274.897 C 346.780 273.442,348.800 273.223,348.800 274.550 L 348.800 275.600 353.467 275.600 C 356.033 275.600,358.022 275.489,357.886 275.352 C 357.473 274.940,358.567 274.115,359.923 273.817 C 360.625 273.663,361.200 273.384,361.200 273.197 C 361.200 273.010,361.483 272.574,361.829 272.229 C 362.400 271.657,362.191 271.600,359.529 271.595 C 355.094 271.586,354.800 271.445,354.800 269.319 L 354.800 267.532 353.057 269.067 C 347.761 273.728,337.752 272.815,334.567 267.379 C 332.604 264.031,332.410 262.387,332.405 249.100 C 332.402 241.170,332.258 236.800,332.000 236.800 C 331.780 236.800,331.600 236.980,331.600 237.200 M354.000 237.200 C 354.000 237.420,353.730 237.600,353.400 237.600 C 353.070 237.600,352.800 237.780,352.800 238.000 C 352.800 238.220,352.449 238.400,352.020 238.400 C 351.591 238.400,351.096 238.650,350.920 238.955 C 350.744 239.261,350.240 239.578,349.800 239.661 C 349.027 239.806,348.996 240.170,348.893 250.505 C 348.827 257.178,348.639 261.200,348.393 261.200 C 348.177 261.200,348.000 261.842,348.000 262.626 C 348.000 263.411,347.800 264.427,347.555 264.885 C 347.127 265.684,347.178 265.706,348.841 265.440 C 351.344 265.040,352.988 263.612,353.970 260.987 C 354.898 258.507,355.284 236.800,354.400 236.800 C 354.180 236.800,354.000 236.980,354.000 237.200 M102.560 237.761 C 102.441 238.069,101.727 238.437,100.972 238.579 C 100.218 238.720,99.600 239.013,99.600 239.228 C 99.600 239.444,99.162 239.786,98.626 239.990 L 97.652 240.360 97.526 252.880 C 97.380 267.386,97.196 265.795,98.953 265.215 C 103.000 263.880,103.595 261.686,103.598 248.100 C 103.600 237.975,103.367 235.657,102.560 237.761 M297.989 238.900 C 297.746 239.835,297.390 241.140,297.199 241.800 C 295.655 247.135,295.405 248.478,295.452 251.184 C 295.484 252.987,295.682 254.227,295.952 254.317 C 296.198 254.399,296.400 255.082,296.400 255.833 C 296.400 256.585,296.559 257.200,296.754 257.200 C 296.949 257.200,297.232 258.190,297.383 259.400 C 297.534 260.610,297.825 261.600,298.029 261.600 C 298.233 261.600,298.400 262.230,298.400 263.000 C 298.400 263.770,298.559 264.400,298.754 264.400 C 299.069 264.400,299.844 268.546,299.669 269.300 C 299.631 269.465,299.759 269.600,299.954 269.600 C 300.149 269.600,300.435 270.619,300.591 271.864 C 301.061 275.627,301.015 275.600,306.896 275.600 C 310.032 275.600,312.000 275.446,312.000 275.200 C 312.000 274.980,312.270 274.800,312.600 274.800 C 312.930 274.800,313.200 274.623,313.200 274.408 C 313.200 274.192,313.650 273.902,314.200 273.764 C 314.750 273.626,315.200 273.353,315.200 273.157 C 315.200 272.960,315.541 272.800,315.957 272.800 C 316.374 272.800,316.824 272.515,316.957 272.167 C 317.390 271.039,317.235 270.753,316.426 271.186 C 315.318 271.779,309.104 271.714,308.288 271.100 C 307.922 270.825,307.264 269.160,306.827 267.400 C 305.704 262.880,303.518 254.516,300.973 245.000 C 300.149 241.920,299.393 238.905,299.292 238.300 C 299.027 236.705,298.496 236.949,297.989 238.900 M188.000 237.973 C 188.000 238.178,187.603 238.472,187.119 238.626 C 185.884 239.018,185.200 239.795,185.200 240.808 C 185.200 241.549,185.459 241.407,187.000 239.821 C 188.880 237.887,189.061 237.600,188.400 237.600 C 188.180 237.600,188.000 237.768,188.000 237.973 M75.843 238.633 C 75.467 239.611,75.549 239.708,76.200 239.057 C 76.880 238.377,76.967 238.000,76.443 238.000 C 76.246 238.000,75.976 238.285,75.843 238.633 M59.478 239.577 C 59.596 240.030,59.852 240.400,60.047 240.400 C 60.586 240.400,60.468 239.754,59.831 239.226 C 59.365 238.839,59.302 238.902,59.478 239.577 M218.800 239.200 C 218.800 239.420,218.434 239.600,217.987 239.600 C 217.541 239.600,217.071 239.870,216.945 240.200 C 216.818 240.530,216.374 240.800,215.957 240.800 C 215.541 240.800,215.200 240.980,215.200 241.200 C 215.200 241.420,214.974 241.600,214.698 241.600 C 214.114 241.600,210.000 245.822,210.000 246.421 C 210.000 246.643,209.730 246.929,209.400 247.055 C 209.070 247.182,208.800 247.590,208.800 247.963 C 208.800 248.335,208.620 248.820,208.400 249.040 C 207.643 249.797,207.703 266.800,208.463 266.800 C 208.648 266.800,208.800 267.160,208.800 267.600 C 208.800 268.040,208.960 268.400,209.157 268.400 C 209.353 268.400,209.626 268.850,209.764 269.400 C 209.902 269.950,210.167 270.400,210.352 270.400 C 212.245 270.400,214.082 274.244,212.398 274.685 C 211.959 274.799,211.600 275.052,211.600 275.247 C 211.600 275.441,211.234 275.600,210.787 275.600 C 210.341 275.600,209.871 275.870,209.745 276.200 C 209.618 276.530,209.165 276.800,208.737 276.800 C 207.924 276.800,207.689 280.561,208.472 281.045 C 208.653 281.156,208.800 281.597,208.800 282.024 C 208.800 282.451,208.980 282.800,209.200 282.800 C 209.420 282.800,209.600 283.029,209.600 283.310 C 209.600 283.898,212.992 287.200,213.596 287.200 C 213.818 287.200,214.000 287.363,214.000 287.562 C 214.000 287.762,214.900 288.049,216.000 288.200 C 217.099 288.351,218.100 288.638,218.223 288.837 C 218.510 289.302,229.600 289.316,229.600 288.852 C 229.600 288.661,230.449 288.408,231.487 288.291 C 232.525 288.174,233.440 287.881,233.520 287.639 C 233.601 287.398,233.922 287.200,234.233 287.200 C 234.545 287.200,234.800 287.032,234.800 286.827 C 234.800 286.622,235.197 286.328,235.681 286.174 C 236.166 286.020,236.809 285.648,237.110 285.347 C 237.411 285.046,237.914 284.800,238.229 284.800 C 238.543 284.800,238.800 284.511,238.800 284.157 C 238.800 283.701,238.596 283.599,238.100 283.804 C 228.273 287.868,214.612 282.847,214.418 275.100 C 214.393 274.125,222.172 274.030,222.545 275.000 C 222.808 275.686,226.400 275.873,226.400 275.200 C 226.400 274.980,226.850 274.800,227.400 274.800 C 227.950 274.800,228.400 274.640,228.400 274.443 C 228.400 274.247,228.850 273.974,229.400 273.836 C 229.950 273.698,230.400 273.408,230.400 273.192 C 230.400 272.977,230.670 272.800,231.000 272.800 C 231.330 272.800,231.600 272.620,231.600 272.400 C 231.600 272.180,231.780 272.000,232.000 272.000 C 232.222 272.000,232.400 273.067,232.400 274.400 C 232.400 275.733,232.222 276.800,232.000 276.800 C 231.780 276.800,231.600 277.264,231.600 277.832 C 231.600 278.775,231.705 278.840,232.827 278.594 C 236.892 277.701,238.400 275.342,238.400 269.875 L 238.400 266.524 236.788 268.057 C 229.292 275.188,218.333 271.511,213.961 260.400 C 211.771 254.836,213.989 244.589,218.261 240.527 C 219.656 239.200,219.874 238.800,219.200 238.800 C 218.980 238.800,218.800 238.980,218.800 239.200 M152.957 243.115 C 150.658 243.893,148.000 246.637,148.000 248.232 C 148.000 249.158,148.733 248.878,148.872 247.900 C 149.040 246.715,152.513 246.749,153.555 247.945 C 153.910 248.352,154.586 248.807,155.057 248.956 C 155.528 249.105,156.006 249.581,156.119 250.013 C 156.460 251.317,164.005 251.209,163.989 249.900 C 163.933 245.419,157.619 241.536,152.957 243.115 M190.538 243.077 C 189.485 243.283,186.699 245.913,187.007 246.411 C 187.128 246.608,187.886 246.893,188.691 247.044 C 190.208 247.328,191.786 248.621,192.767 250.382 C 193.204 251.168,193.387 254.135,193.567 263.400 L 193.800 275.400 198.141 275.514 C 201.985 275.615,202.557 275.541,203.141 274.871 C 203.503 274.455,204.235 273.977,204.766 273.809 C 205.297 273.641,206.154 273.082,206.669 272.567 L 207.606 271.630 203.903 271.515 L 200.200 271.400 199.954 259.600 C 199.612 243.161,198.660 241.491,190.538 243.077 M226.083 243.442 C 224.826 244.086,223.200 245.763,223.200 246.416 C 223.200 246.586,224.100 246.849,225.200 247.000 C 226.300 247.151,227.200 247.438,227.200 247.638 C 227.200 247.837,227.440 248.000,227.734 248.000 C 228.331 248.000,230.400 250.170,230.400 250.797 C 230.400 251.018,230.578 251.200,230.795 251.200 C 231.013 251.200,231.306 251.920,231.446 252.800 C 231.587 253.680,231.859 254.400,232.051 254.400 C 232.243 254.400,232.400 255.750,232.400 257.400 C 232.400 259.050,232.243 260.400,232.052 260.400 C 231.861 260.400,231.610 261.232,231.496 262.249 C 231.381 263.267,231.048 264.247,230.755 264.428 C 229.605 265.139,230.882 265.277,232.587 264.626 C 239.370 262.036,240.719 249.126,234.713 244.281 C 232.822 242.755,228.285 242.314,226.083 243.442 M324.400 243.400 C 324.400 243.730,324.580 244.000,324.800 244.000 C 325.020 244.000,325.200 243.730,325.200 243.400 C 325.200 243.070,325.020 242.800,324.800 242.800 C 324.580 242.800,324.400 243.070,324.400 243.400 M72.460 243.842 C 71.731 244.666,72.200 245.057,72.981 244.276 C 73.321 243.936,73.600 243.554,73.600 243.429 C 73.600 243.009,73.006 243.224,72.460 243.842 M129.600 245.250 L 129.600 247.300 130.900 247.041 C 131.615 246.898,132.260 246.606,132.333 246.391 C 132.407 246.176,132.722 246.000,133.033 246.000 C 133.345 246.000,133.600 245.832,133.600 245.627 C 133.600 245.422,133.997 245.128,134.481 244.974 C 135.363 244.694,136.400 243.859,136.400 243.429 C 136.400 243.303,134.870 243.200,133.000 243.200 L 129.600 243.200 129.600 245.250 M323.200 248.024 C 323.200 248.477,323.380 248.736,323.600 248.600 C 323.820 248.464,324.000 248.093,324.000 247.776 C 324.000 247.459,323.820 247.200,323.600 247.200 C 323.380 247.200,323.200 247.571,323.200 248.024 M69.260 249.042 C 68.531 249.866,69.000 250.257,69.781 249.476 C 70.121 249.136,70.400 248.754,70.400 248.629 C 70.400 248.209,69.806 248.424,69.260 249.042 M147.200 250.000 C 147.200 250.440,147.380 250.800,147.600 250.800 C 147.820 250.800,148.000 250.440,148.000 250.000 C 148.000 249.560,147.820 249.200,147.600 249.200 C 147.380 249.200,147.200 249.560,147.200 250.000 M322.400 250.400 C 322.400 250.840,322.580 251.200,322.800 251.200 C 323.020 251.200,323.200 250.840,323.200 250.400 C 323.200 249.960,323.020 249.600,322.800 249.600 C 322.580 249.600,322.400 249.960,322.400 250.400 M67.260 252.242 C 66.531 253.066,67.000 253.457,67.781 252.676 C 68.121 252.336,68.400 251.954,68.400 251.829 C 68.400 251.409,67.806 251.624,67.260 252.242 M294.400 252.600 C 294.400 252.930,294.580 253.200,294.800 253.200 C 295.020 253.200,295.200 252.930,295.200 252.600 C 295.200 252.270,295.020 252.000,294.800 252.000 C 294.580 252.000,294.400 252.270,294.400 252.600 M293.600 255.200 C 293.600 255.640,293.780 256.000,294.000 256.000 C 294.220 256.000,294.400 255.640,294.400 255.200 C 294.400 254.760,294.220 254.400,294.000 254.400 C 293.780 254.400,293.600 254.760,293.600 255.200 M321.206 255.300 C 321.211 256.028,321.286 256.085,321.600 255.600 C 322.101 254.824,322.101 254.400,321.600 254.400 C 321.380 254.400,321.203 254.805,321.206 255.300 M292.400 259.800 C 292.400 260.130,292.580 260.400,292.800 260.400 C 293.020 260.400,293.200 260.130,293.200 259.800 C 293.200 259.470,293.020 259.200,292.800 259.200 C 292.580 259.200,292.400 259.470,292.400 259.800 M161.905 261.320 C 161.064 261.556,160.308 262.058,160.178 262.469 C 160.050 262.871,159.638 263.200,159.262 263.200 C 158.529 263.200,157.200 264.522,157.200 265.251 C 157.200 265.514,157.564 265.596,158.100 265.452 C 158.595 265.319,159.285 265.208,159.633 265.205 C 160.425 265.199,163.051 262.613,163.323 261.573 C 163.434 261.148,163.497 260.823,163.463 260.851 C 163.428 260.878,162.727 261.090,161.905 261.320 M319.200 262.424 C 319.200 262.877,319.380 263.136,319.600 263.000 C 319.820 262.864,320.000 262.493,320.000 262.176 C 320.000 261.859,319.820 261.600,319.600 261.600 C 319.380 261.600,319.200 261.971,319.200 262.424 M291.200 264.824 C 291.200 265.277,291.380 265.536,291.600 265.400 C 291.820 265.264,292.000 264.893,292.000 264.576 C 292.000 264.259,291.820 264.000,291.600 264.000 C 291.380 264.000,291.200 264.371,291.200 264.824 M317.200 269.424 C 317.200 270.004,317.373 270.340,317.600 270.200 C 317.820 270.064,318.000 269.603,318.000 269.176 C 318.000 268.749,317.820 268.400,317.600 268.400 C 317.380 268.400,317.200 268.861,317.200 269.424 M243.319 280.540 C 243.055 280.793,242.560 281.232,242.219 281.516 C 241.879 281.799,241.600 282.206,241.600 282.419 C 241.600 282.632,242.168 282.264,242.863 281.600 C 243.558 280.936,244.053 280.323,243.963 280.237 C 243.873 280.151,243.584 280.288,243.319 280.540 M239.612 283.184 C 239.288 283.389,239.144 283.678,239.293 283.826 C 239.441 283.974,239.853 283.804,240.210 283.448 C 240.913 282.744,240.557 282.587,239.612 283.184 " stroke="none" fill="#2f272d" fill-rule="evenodd"></path><path id="path1" d="M41.600 224.664 C 41.600 224.939,47.255 234.220,50.266 238.887 C 51.220 240.365,52.000 241.652,52.000 241.747 C 52.000 241.842,52.650 242.883,53.445 244.060 C 54.239 245.237,55.049 246.560,55.244 247.000 C 55.677 247.979,56.512 249.329,56.850 249.600 C 58.487 250.910,58.800 252.886,58.800 261.894 L 58.800 270.800 62.200 270.800 L 65.600 270.800 65.600 262.214 C 65.600 253.842,65.624 253.585,66.582 251.870 C 67.122 250.902,71.159 244.326,75.553 237.255 L 83.543 224.400 79.471 224.408 L 75.400 224.417 74.400 226.600 C 73.850 227.801,73.286 228.787,73.147 228.792 C 73.007 228.796,72.788 229.115,72.658 229.500 C 72.529 229.885,72.193 230.559,71.912 230.998 C 71.630 231.437,71.110 232.247,70.757 232.798 C 70.403 233.349,69.521 234.880,68.797 236.200 C 68.073 237.520,67.372 238.690,67.240 238.800 C 67.108 238.910,66.664 239.630,66.254 240.400 C 63.100 246.322,62.896 246.553,61.810 245.467 C 61.475 245.132,61.200 244.750,61.200 244.619 C 61.200 244.488,60.480 243.240,59.600 241.847 C 58.720 240.454,58.000 239.194,58.000 239.047 C 58.000 238.900,57.280 237.640,56.400 236.247 C 55.520 234.854,54.800 233.508,54.800 233.257 C 54.800 233.006,54.641 232.800,54.447 232.800 C 54.252 232.800,53.988 232.485,53.858 232.100 C 53.613 231.369,52.765 229.944,52.371 229.600 C 52.245 229.490,52.018 229.130,51.866 228.800 C 51.715 228.470,51.246 227.660,50.825 227.000 C 50.403 226.340,50.045 225.485,50.029 225.100 C 50.000 224.394,41.600 223.959,41.600 224.664 M268.800 225.185 C 268.800 225.633,268.980 226.000,269.200 226.000 C 269.420 226.000,269.600 226.363,269.600 226.806 C 269.600 227.688,270.690 232.122,271.221 233.400 C 271.404 233.840,271.669 234.830,271.810 235.600 C 272.066 237.003,272.274 237.749,273.397 241.314 C 273.729 242.367,274.000 243.762,274.000 244.414 C 274.000 245.066,274.180 245.600,274.400 245.600 C 274.620 245.600,274.800 246.129,274.800 246.776 C 274.800 247.423,274.956 248.049,275.147 248.167 C 275.338 248.285,275.617 249.302,275.766 250.426 C 275.915 251.550,276.197 252.769,276.392 253.135 C 276.804 253.908,278.294 259.606,278.919 262.800 C 279.156 264.010,279.471 265.090,279.619 265.200 C 279.768 265.310,279.992 265.940,280.117 266.600 C 280.243 267.260,280.499 268.430,280.688 269.200 L 281.031 270.600 284.865 270.714 C 289.046 270.838,289.178 270.758,289.195 268.100 C 289.198 267.605,289.380 267.200,289.600 267.200 C 289.820 267.200,290.000 266.654,290.000 265.987 C 290.000 265.320,290.270 264.128,290.600 263.338 C 290.930 262.549,291.200 261.485,291.200 260.975 C 291.200 260.465,291.359 259.949,291.553 259.829 C 291.748 259.709,292.030 258.621,292.181 257.412 C 292.332 256.202,292.623 255.109,292.828 254.983 C 293.033 254.856,293.200 254.324,293.200 253.800 C 293.200 253.276,293.356 252.751,293.547 252.633 C 293.738 252.515,294.020 251.473,294.173 250.319 C 294.326 249.165,294.597 248.035,294.775 247.810 C 294.954 247.584,295.205 246.860,295.333 246.200 C 295.810 243.753,296.611 240.588,296.851 240.200 C 296.987 239.980,297.216 238.990,297.361 238.000 C 297.783 235.109,299.600 233.943,299.600 236.564 C 299.600 237.108,299.756 237.649,299.947 237.767 C 300.138 237.885,300.420 238.927,300.573 240.081 C 300.726 241.235,300.997 242.365,301.175 242.590 C 301.354 242.816,301.599 243.540,301.721 244.200 C 302.142 246.483,302.848 249.403,303.172 250.200 C 303.351 250.640,303.822 252.440,304.218 254.200 C 304.615 255.960,305.070 257.580,305.231 257.800 C 305.392 258.020,305.651 259.237,305.808 260.505 C 305.965 261.773,306.252 262.909,306.447 263.029 C 306.641 263.149,306.800 263.676,306.800 264.200 C 306.800 264.724,306.956 265.249,307.147 265.367 C 307.338 265.485,307.620 266.527,307.773 267.681 C 308.171 270.680,308.350 270.800,312.449 270.800 C 315.733 270.800,316.000 270.740,316.000 270.000 C 316.000 269.560,316.146 269.200,316.324 269.200 C 316.502 269.200,316.848 268.165,317.094 266.900 C 317.749 263.522,318.088 262.224,318.374 262.000 C 318.628 261.800,319.448 258.560,319.866 256.100 C 319.988 255.385,320.225 254.800,320.392 254.800 C 320.560 254.800,320.818 253.884,320.967 252.765 C 321.115 251.646,321.392 250.431,321.581 250.065 C 322.160 248.949,323.200 245.165,323.200 244.178 C 323.200 243.666,323.380 243.136,323.600 243.000 C 323.820 242.864,324.000 242.424,324.000 242.022 C 324.000 241.195,325.096 237.343,325.619 236.335 C 325.808 235.969,326.085 234.750,326.234 233.626 C 326.383 232.502,326.662 231.485,326.853 231.367 C 327.044 231.249,327.200 230.749,327.200 230.256 C 327.200 229.763,327.369 229.189,327.575 228.980 C 327.782 228.771,328.075 227.655,328.227 226.500 L 328.503 224.400 324.852 224.400 L 321.200 224.400 321.200 226.000 C 321.200 226.880,321.041 227.600,320.847 227.600 C 320.652 227.600,320.368 228.768,320.215 230.196 C 320.062 231.623,319.771 232.894,319.569 233.019 C 319.366 233.145,319.200 233.766,319.200 234.400 C 319.200 235.034,319.034 235.655,318.831 235.781 C 318.629 235.906,318.338 237.177,318.185 238.604 C 318.032 240.032,317.748 241.200,317.553 241.200 C 317.359 241.200,317.192 241.785,317.182 242.500 C 317.173 243.215,316.905 244.520,316.588 245.400 C 316.271 246.280,316.009 247.317,316.006 247.705 C 316.003 248.093,315.828 248.723,315.618 249.105 C 315.279 249.723,314.811 251.861,314.131 255.904 C 314.010 256.621,313.751 257.306,313.556 257.427 C 313.360 257.548,313.200 258.141,313.200 258.744 C 313.200 259.803,312.579 260.800,311.920 260.800 C 311.744 260.800,311.600 260.451,311.600 260.024 C 311.600 259.597,311.440 259.148,311.244 259.027 C 311.049 258.906,310.794 258.221,310.678 257.504 C 310.299 255.166,309.575 252.214,309.221 251.564 C 309.030 251.215,308.746 249.907,308.590 248.659 C 308.434 247.411,308.148 246.291,307.953 246.171 C 307.759 246.051,307.600 245.434,307.600 244.800 C 307.600 244.166,307.433 243.544,307.228 243.417 C 307.023 243.291,306.732 242.198,306.581 240.988 C 306.430 239.779,306.148 238.691,305.953 238.571 C 305.759 238.451,305.600 237.834,305.600 237.200 C 305.600 236.566,305.403 235.925,305.162 235.777 C 304.922 235.628,304.807 235.077,304.907 234.553 C 305.007 234.029,304.934 233.600,304.745 233.600 C 304.555 233.600,304.400 232.970,304.400 232.200 C 304.400 231.430,304.220 230.800,304.000 230.800 C 303.780 230.800,303.600 230.437,303.600 229.994 C 303.600 229.551,303.300 228.111,302.934 226.794 L 302.269 224.400 298.734 224.400 C 295.254 224.400,295.200 224.415,295.200 225.376 C 295.200 225.913,295.020 226.464,294.800 226.600 C 294.580 226.736,294.400 227.276,294.400 227.800 C 294.400 228.324,294.241 228.851,294.047 228.971 C 293.852 229.091,293.570 230.179,293.419 231.388 C 293.268 232.598,292.977 233.691,292.772 233.817 C 292.567 233.944,292.400 234.667,292.400 235.424 C 292.400 236.181,292.237 236.800,292.038 236.800 C 291.838 236.800,291.548 237.745,291.392 238.900 C 291.236 240.055,290.995 241.180,290.856 241.400 C 290.612 241.786,289.817 244.921,289.333 247.400 C 289.205 248.060,288.954 248.784,288.775 249.010 C 288.597 249.235,288.326 250.365,288.173 251.519 C 288.020 252.673,287.738 253.715,287.547 253.833 C 287.356 253.951,287.200 254.566,287.200 255.200 C 287.200 255.834,287.041 256.451,286.846 256.571 C 286.652 256.692,286.371 257.598,286.223 258.586 C 286.075 259.573,285.760 260.501,285.524 260.647 C 284.742 261.130,284.251 259.899,283.115 254.600 C 282.832 253.280,282.485 252.020,282.346 251.800 C 282.206 251.580,281.963 250.275,281.806 248.899 C 281.649 247.524,281.359 246.298,281.161 246.176 C 280.962 246.053,280.800 245.344,280.800 244.600 C 280.800 243.856,280.633 243.144,280.428 243.017 C 280.223 242.891,279.931 241.755,279.779 240.494 C 279.626 239.232,279.366 238.020,279.201 237.800 C 278.881 237.374,278.420 235.315,278.239 233.498 C 278.178 232.891,278.010 232.276,277.864 232.131 C 277.719 231.986,277.600 231.387,277.600 230.800 C 277.600 230.213,277.465 229.600,277.300 229.437 C 277.135 229.274,276.820 228.119,276.600 226.870 L 276.200 224.600 272.500 224.485 C 269.006 224.376,268.800 224.415,268.800 225.185 M122.400 232.400 L 122.400 237.600 119.600 237.600 L 116.800 237.600 116.800 240.200 L 116.800 242.800 119.600 242.800 L 122.400 242.800 122.400 254.605 C 122.400 263.306,122.532 266.646,122.900 267.305 C 123.983 269.243,125.383 270.420,126.892 270.661 C 127.731 270.795,128.514 271.061,128.632 271.253 C 128.931 271.736,132.697 271.690,133.000 271.200 C 133.136 270.980,133.888 270.800,134.670 270.800 C 135.951 270.800,136.069 270.710,135.852 269.900 C 135.719 269.405,135.608 268.415,135.605 267.700 L 135.600 266.400 133.100 266.387 C 130.284 266.373,128.975 265.703,129.304 264.444 C 129.427 263.975,129.282 263.564,128.949 263.436 C 128.482 263.257,128.404 261.501,128.493 253.110 L 128.600 243.000 132.321 242.885 L 136.041 242.769 135.962 239.785 L 135.883 236.800 132.765 236.800 C 131.050 236.800,129.534 236.983,129.396 237.207 C 128.718 238.304,128.400 236.701,128.400 232.176 L 128.400 227.200 125.400 227.200 L 122.400 227.200 122.400 232.400 M153.838 237.045 C 153.663 237.501,153.241 237.638,152.395 237.514 C 151.738 237.418,151.200 237.487,151.200 237.669 C 151.200 237.851,150.750 238.000,150.200 238.000 C 149.650 238.000,149.200 238.142,149.200 238.316 C 149.200 238.490,148.345 239.134,147.300 239.748 C 145.282 240.933,142.254 244.650,141.785 246.518 C 141.634 247.117,141.351 247.706,141.156 247.827 C 140.960 247.948,140.800 248.577,140.800 249.224 C 140.800 249.871,140.620 250.400,140.400 250.400 C 140.160 250.400,140.000 251.992,140.000 254.376 C 140.000 256.596,140.177 258.462,140.400 258.600 C 140.620 258.736,140.800 259.289,140.800 259.829 C 140.800 260.369,140.971 261.123,141.181 261.505 C 141.390 261.887,141.861 262.876,142.227 263.703 C 143.605 266.810,149.167 270.800,152.120 270.800 C 152.908 270.800,153.664 270.980,153.800 271.200 C 153.936 271.420,154.926 271.600,156.000 271.600 C 157.074 271.600,158.064 271.420,158.200 271.200 C 158.336 270.980,158.988 270.800,159.649 270.800 C 162.807 270.800,168.081 266.800,169.671 263.200 C 170.108 262.210,170.631 261.087,170.833 260.705 C 171.035 260.323,171.200 259.918,171.200 259.805 C 171.200 259.418,167.647 259.600,167.400 260.000 C 167.264 260.220,166.632 260.400,165.995 260.400 C 165.061 260.400,164.707 260.676,164.160 261.828 C 163.283 263.676,161.349 265.600,160.369 265.600 C 159.946 265.600,159.600 265.780,159.600 266.000 C 159.600 266.220,159.060 266.400,158.400 266.400 C 157.740 266.400,157.200 266.220,157.200 266.000 C 157.200 265.474,154.678 265.482,154.151 266.009 C 153.138 267.022,147.600 262.971,147.600 261.218 C 147.600 260.805,147.445 260.407,147.255 260.333 C 147.065 260.260,146.822 259.255,146.714 258.100 L 146.517 256.000 159.105 256.000 L 171.693 256.000 171.427 253.300 C 171.281 251.815,171.144 250.105,171.123 249.500 C 171.102 248.895,170.931 248.400,170.743 248.400 C 170.554 248.400,170.400 248.140,170.400 247.821 C 170.400 244.427,162.457 237.206,159.100 237.548 C 158.318 237.628,158.000 237.478,158.000 237.030 C 158.000 236.114,154.190 236.127,153.838 237.045 M193.600 237.000 C 193.600 237.343,193.240 237.600,192.760 237.600 C 191.322 237.600,189.179 238.859,187.132 240.906 C 184.535 243.503,184.000 243.283,184.000 239.613 L 184.000 236.800 181.000 236.800 L 178.000 236.800 178.000 253.800 L 178.000 270.800 181.388 270.800 L 184.776 270.800 184.910 259.700 C 184.983 253.595,185.142 248.330,185.261 248.000 C 185.893 246.259,186.264 245.680,187.571 244.388 C 190.468 241.527,195.768 241.060,198.279 243.446 C 200.296 245.362,200.400 246.117,200.400 258.812 L 200.400 270.800 203.589 270.800 L 206.778 270.800 206.889 258.030 C 206.950 251.007,206.880 245.022,206.733 244.730 C 206.587 244.439,206.163 243.504,205.793 242.654 C 204.955 240.733,203.402 239.106,201.700 238.368 C 200.985 238.058,200.400 237.700,200.400 237.572 C 200.400 237.443,199.862 237.418,199.205 237.514 C 198.359 237.638,197.937 237.501,197.762 237.045 C 197.419 236.152,193.600 236.111,193.600 237.000 M226.677 236.944 C 226.561 237.247,225.567 237.607,224.434 237.758 C 223.315 237.906,222.400 238.201,222.400 238.414 C 222.400 238.626,222.135 238.800,221.810 238.800 C 220.971 238.800,216.728 243.132,215.933 244.800 C 211.589 253.915,214.571 265.663,222.200 269.491 C 224.382 270.586,231.704 271.082,232.316 270.176 C 232.472 269.944,233.191 269.515,233.914 269.223 C 234.636 268.931,235.919 267.906,236.764 266.946 C 239.118 264.272,239.600 264.531,239.600 268.472 C 239.600 276.812,237.395 279.130,229.600 278.983 C 224.152 278.881,222.392 278.140,221.936 275.760 C 221.711 274.582,215.200 274.376,215.200 275.546 C 215.200 277.367,216.973 279.762,220.292 282.422 C 220.563 282.639,221.332 282.926,222.000 283.060 C 222.669 283.194,223.314 283.460,223.432 283.652 C 223.550 283.843,224.346 284.000,225.200 284.000 C 226.054 284.000,226.864 284.180,227.000 284.400 C 227.136 284.620,228.407 284.800,229.824 284.800 C 231.275 284.800,232.400 284.625,232.400 284.400 C 232.400 284.180,233.008 284.000,233.751 284.000 C 235.014 284.000,236.483 283.532,239.416 282.196 C 241.597 281.203,244.800 277.063,244.800 275.238 C 244.800 274.777,244.980 274.400,245.200 274.400 C 245.461 274.400,245.600 267.867,245.600 255.600 L 245.600 236.800 242.618 236.800 L 239.637 236.800 239.518 239.468 C 239.395 242.238,238.895 242.969,237.936 241.777 C 236.457 239.938,234.240 238.000,233.617 238.000 C 233.388 238.000,233.186 237.685,233.168 237.300 C 233.150 236.882,233.056 236.801,232.935 237.100 C 232.652 237.802,230.823 237.725,230.545 237.000 C 230.242 236.212,226.976 236.165,226.677 236.944 M82.000 248.100 C 82.001 265.389,83.511 269.830,89.666 270.647 C 90.730 270.788,91.600 271.060,91.600 271.252 C 91.600 271.443,92.590 271.600,93.800 271.600 C 95.010 271.600,96.000 271.420,96.000 271.200 C 96.000 270.980,96.408 270.800,96.906 270.800 C 98.251 270.800,100.824 269.334,102.299 267.728 C 104.044 265.828,104.800 266.149,104.800 268.787 L 104.800 270.800 107.800 270.800 L 110.800 270.800 110.800 253.800 L 110.800 236.800 107.500 236.800 L 104.200 236.799 104.333 247.500 C 104.488 260.020,104.262 261.659,102.072 263.896 C 99.910 266.104,97.200 267.275,97.200 266.000 C 97.200 265.450,94.957 265.495,94.047 266.064 C 93.433 266.447,93.026 266.327,91.686 265.364 C 88.914 263.371,89.012 263.921,88.879 249.700 L 88.759 236.800 85.379 236.800 L 82.000 236.800 82.000 248.100 M332.929 248.500 C 333.153 265.784,334.541 269.861,340.466 270.647 C 341.540 270.789,342.515 271.062,342.633 271.253 C 342.915 271.709,346.689 271.703,346.972 271.245 C 347.093 271.050,347.846 270.768,348.646 270.618 C 350.469 270.276,352.913 268.684,353.607 267.387 C 354.611 265.511,355.600 266.113,355.600 268.600 L 355.600 270.800 358.800 270.800 L 362.000 270.800 362.000 253.800 L 362.000 236.800 358.600 236.800 L 355.200 236.800 355.200 249.000 C 355.200 256.867,355.058 261.200,354.800 261.200 C 354.580 261.200,354.400 261.558,354.400 261.997 C 354.400 264.144,348.381 267.587,347.400 266.000 C 347.053 265.439,345.460 265.501,344.853 266.100 C 344.447 266.501,344.244 266.462,343.834 265.906 C 343.552 265.525,343.205 265.328,343.064 265.469 C 342.653 265.880,340.400 263.288,340.400 262.404 C 340.400 261.962,340.220 261.600,340.000 261.600 C 339.742 261.600,339.600 257.200,339.600 249.200 L 339.600 236.800 336.188 236.800 L 332.777 236.800 332.929 248.500 M159.081 242.492 C 159.697 242.762,160.290 243.091,160.400 243.221 C 160.510 243.352,160.898 243.568,161.262 243.702 C 162.415 244.127,164.311 247.336,164.618 249.384 L 164.910 251.330 158.792 251.065 C 155.426 250.919,151.302 250.800,149.626 250.800 L 146.579 250.800 146.731 249.200 C 146.815 248.320,147.045 247.600,147.242 247.600 C 147.439 247.600,147.600 247.333,147.600 247.007 C 147.600 243.848,155.288 240.824,159.081 242.492 M233.481 242.482 C 235.020 243.144,238.000 246.244,238.000 247.183 C 238.000 247.607,238.160 248.052,238.356 248.173 C 239.727 249.020,239.602 256.644,238.164 259.860 C 237.854 260.554,237.600 261.282,237.600 261.479 C 237.600 262.000,234.770 264.562,233.600 265.101 C 231.894 265.887,225.200 265.291,225.200 264.353 C 225.200 264.159,224.994 264.045,224.742 264.100 C 223.217 264.433,220.312 258.309,220.910 256.023 C 221.026 255.578,220.876 255.161,220.556 255.038 C 219.865 254.773,219.835 253.786,220.500 253.165 C 220.800 252.885,220.944 252.005,220.861 250.968 C 220.611 247.851,222.643 244.636,226.200 242.523 C 227.253 241.897,232.060 241.870,233.481 242.482 " stroke="none" fill="#fcdc44" fill-rule="evenodd"></path><path id="path2" d="M198.218 236.829 C 198.384 237.098,200.400 236.837,200.400 236.547 C 200.400 236.459,199.872 236.427,199.228 236.477 C 198.583 236.526,198.129 236.684,198.218 236.829 M340.000 248.400 C 340.000 255.867,340.143 260.000,340.400 260.000 C 340.657 260.000,340.800 255.867,340.800 248.400 C 340.800 240.933,340.657 236.800,340.400 236.800 C 340.143 236.800,340.000 240.933,340.000 248.400 M362.406 254.124 C 362.402 265.706,362.536 271.563,362.800 271.400 C 363.335 271.070,363.335 238.027,362.800 237.200 C 362.546 236.808,362.410 242.662,362.406 254.124 M88.974 248.000 C 88.974 253.610,89.030 255.905,89.099 253.100 C 89.168 250.295,89.168 245.705,89.099 242.900 C 89.030 240.095,88.974 242.390,88.974 248.000 M177.783 254.400 C 177.783 263.530,177.835 267.265,177.900 262.700 C 177.964 258.135,177.964 250.665,177.900 246.100 C 177.835 241.535,177.783 245.270,177.783 254.400 M169.732 244.567 C 169.879 244.951,170.000 245.431,170.000 245.633 C 170.000 245.835,170.163 246.000,170.363 246.000 C 170.828 246.000,170.437 244.470,169.884 244.128 C 169.620 243.965,169.564 244.128,169.732 244.567 M207.731 248.600 C 207.733 250.140,207.805 250.721,207.892 249.891 C 207.979 249.061,207.977 247.801,207.889 247.091 C 207.800 246.381,207.729 247.060,207.731 248.600 M185.200 260.576 C 185.200 267.659,185.343 271.600,185.600 271.600 C 185.857 271.600,186.000 267.741,186.000 260.824 C 186.000 254.071,185.851 249.955,185.600 249.800 C 185.337 249.637,185.200 253.329,185.200 260.576 M207.340 257.600 C 207.340 259.470,207.409 260.235,207.493 259.300 C 207.577 258.365,207.577 256.835,207.493 255.900 C 207.409 254.965,207.340 255.730,207.340 257.600 M147.061 256.300 C 146.959 256.465,150.503 256.554,154.938 256.498 C 170.275 256.303,171.749 256.171,159.524 256.086 C 152.772 256.038,147.164 256.135,147.061 256.300 M148.800 261.910 C 148.800 262.327,149.876 263.600,150.229 263.600 C 150.547 263.600,150.403 263.326,149.600 262.400 C 149.160 261.893,148.800 261.672,148.800 261.910 M227.200 264.800 C 227.200 265.020,227.470 265.200,227.800 265.200 C 228.130 265.200,228.400 265.020,228.400 264.800 C 228.400 264.580,228.130 264.400,227.800 264.400 C 227.470 264.400,227.200 264.580,227.200 264.800 M207.742 268.200 C 207.741 270.180,207.808 271.040,207.892 270.112 C 207.976 269.184,207.977 267.564,207.895 266.512 C 207.812 265.460,207.743 266.220,207.742 268.200 M354.909 269.200 C 354.909 270.190,354.987 270.595,355.082 270.100 C 355.178 269.605,355.178 268.795,355.082 268.300 C 354.987 267.805,354.909 268.210,354.909 269.200 M226.400 278.400 C 226.400 278.620,226.670 278.800,227.000 278.800 C 227.330 278.800,227.600 278.620,227.600 278.400 C 227.600 278.180,227.330 278.000,227.000 278.000 C 226.670 278.000,226.400 278.180,226.400 278.400 " stroke="none" fill="#97844c" fill-rule="evenodd"></path><path id="path3" d="M84.000 224.967 C 84.000 225.278,83.775 225.614,83.500 225.712 C 83.225 225.810,83.126 226.027,83.281 226.193 C 83.605 226.541,84.800 225.468,84.800 224.829 C 84.800 224.593,84.620 224.400,84.400 224.400 C 84.180 224.400,84.000 224.655,84.000 224.967 M51.200 226.217 C 51.200 226.336,51.560 226.820,52.000 227.292 C 52.870 228.226,53.041 227.998,52.386 226.774 C 52.010 226.071,51.200 225.690,51.200 226.217 M303.859 226.304 C 303.691 226.577,303.693 227.025,303.864 227.300 C 304.035 227.575,304.123 228.205,304.059 228.700 C 303.995 229.195,304.136 229.600,304.371 229.600 C 304.842 229.600,304.874 228.354,304.443 226.804 C 304.254 226.126,304.068 225.966,303.859 226.304 M277.200 227.576 C 277.200 228.029,277.380 228.400,277.600 228.400 C 277.820 228.400,278.000 228.141,278.000 227.824 C 278.000 227.507,277.820 227.136,277.600 227.000 C 277.380 226.864,277.200 227.123,277.200 227.576 M121.598 232.081 C 121.489 234.876,121.541 237.021,121.713 236.848 C 121.886 236.675,121.975 234.388,121.911 231.767 L 121.796 227.000 121.598 232.081 M328.400 228.200 C 328.400 228.530,328.580 228.800,328.800 228.800 C 329.020 228.800,329.200 228.530,329.200 228.200 C 329.200 227.870,329.020 227.600,328.800 227.600 C 328.580 227.600,328.400 227.870,328.400 228.200 M269.256 229.200 C 269.256 229.530,269.411 230.160,269.600 230.600 C 269.817 231.104,269.944 231.178,269.944 230.800 C 269.944 230.470,269.789 229.840,269.600 229.400 C 269.383 228.896,269.256 228.822,269.256 229.200 M278.249 229.930 C 278.072 230.442,278.033 230.967,278.163 231.097 C 278.578 231.511,278.870 230.900,278.718 229.934 L 278.571 229.000 278.249 229.930 M44.187 230.775 C 44.521 231.421,44.976 232.061,45.198 232.199 C 45.420 232.336,45.223 231.807,44.761 231.024 C 43.748 229.307,43.335 229.128,44.187 230.775 M80.243 230.633 C 79.921 231.472,79.935 231.600,80.353 231.600 C 80.548 231.600,80.801 231.240,80.916 230.800 C 81.163 229.855,80.595 229.714,80.243 230.633 M327.600 230.600 C 327.600 230.930,327.780 231.200,328.000 231.200 C 328.220 231.200,328.400 230.930,328.400 230.600 C 328.400 230.270,328.220 230.000,328.000 230.000 C 327.780 230.000,327.600 230.270,327.600 230.600 M305.049 231.130 C 304.872 231.642,304.833 232.167,304.963 232.297 C 305.378 232.711,305.670 232.100,305.518 231.134 L 305.371 230.200 305.049 231.130 M278.921 232.721 C 278.615 232.913,278.571 233.230,278.799 233.599 C 279.228 234.292,279.726 233.915,279.535 233.042 C 279.455 232.672,279.206 232.542,278.921 232.721 M78.480 233.680 C 77.896 234.264,77.858 234.800,78.400 234.800 C 78.620 234.800,78.800 234.519,78.800 234.176 C 78.800 233.833,78.980 233.664,79.200 233.800 C 79.420 233.936,79.600 233.857,79.600 233.624 C 79.600 233.060,79.073 233.087,78.480 233.680 M270.456 233.600 C 270.456 233.930,270.611 234.560,270.800 235.000 C 271.017 235.504,271.144 235.578,271.144 235.200 C 271.144 234.870,270.989 234.240,270.800 233.800 C 270.583 233.296,270.456 233.222,270.456 233.600 M305.600 234.400 C 305.600 234.840,305.780 235.200,306.000 235.200 C 306.220 235.200,306.400 234.840,306.400 234.400 C 306.400 233.960,306.220 233.600,306.000 233.600 C 305.780 233.600,305.600 233.960,305.600 234.400 M56.648 234.723 C 56.483 234.989,56.630 235.487,56.974 235.832 C 57.319 236.176,57.600 236.714,57.600 237.029 C 57.600 237.343,57.792 237.600,58.027 237.600 C 58.474 237.600,58.130 235.966,57.606 235.600 C 57.449 235.490,57.236 235.139,57.133 234.820 C 56.994 234.388,56.870 234.363,56.648 234.723 M279.206 235.300 C 279.203 235.905,279.380 236.400,279.600 236.400 C 280.106 236.400,280.106 235.583,279.600 234.800 C 279.298 234.332,279.211 234.443,279.206 235.300 M47.387 235.975 C 47.721 236.621,48.176 237.261,48.398 237.399 C 48.620 237.536,48.423 237.007,47.961 236.224 C 46.948 234.507,46.535 234.328,47.387 235.975 M76.777 236.300 C 76.474 236.905,76.160 237.535,76.080 237.700 C 75.999 237.865,76.128 238.000,76.367 238.000 C 76.605 238.000,76.800 237.730,76.800 237.400 C 76.800 237.070,76.959 236.800,77.153 236.800 C 77.348 236.800,77.601 236.440,77.716 236.000 C 78.022 234.830,77.417 235.023,76.777 236.300 M298.243 236.633 C 297.823 237.726,297.977 238.080,298.600 237.457 C 298.930 237.127,299.200 236.664,299.200 236.429 C 299.200 235.773,298.517 235.919,298.243 236.633 M191.815 236.776 C 191.687 236.982,191.947 237.124,192.391 237.091 C 192.836 237.057,193.200 236.888,193.200 236.715 C 193.200 236.273,192.096 236.321,191.815 236.776 M224.000 236.553 C 224.000 236.638,224.450 236.793,225.000 236.898 C 225.550 237.003,226.000 236.934,226.000 236.745 C 226.000 236.555,225.550 236.400,225.000 236.400 C 224.450 236.400,224.000 236.469,224.000 236.553 M306.000 237.000 C 306.000 237.330,306.180 237.600,306.400 237.600 C 306.620 237.600,306.800 237.330,306.800 237.000 C 306.800 236.670,306.620 236.400,306.400 236.400 C 306.180 236.400,306.000 236.670,306.000 237.000 M89.200 248.400 C 89.200 255.867,89.343 260.000,89.600 260.000 C 89.857 260.000,90.000 255.867,90.000 248.400 C 90.000 240.933,89.857 236.800,89.600 236.800 C 89.343 236.800,89.200 240.933,89.200 248.400 M111.200 253.933 C 111.200 266.211,111.327 271.200,111.639 271.200 C 112.128 271.200,111.961 237.428,111.471 236.937 C 111.322 236.788,111.200 244.437,111.200 253.933 M136.542 240.200 C 136.541 242.180,136.608 243.040,136.692 242.112 C 136.776 241.184,136.777 239.564,136.695 238.512 C 136.612 237.460,136.543 238.220,136.542 240.200 M222.000 237.200 C 222.000 237.420,222.270 237.600,222.600 237.600 C 222.930 237.600,223.200 237.420,223.200 237.200 C 223.200 236.980,222.930 236.800,222.600 236.800 C 222.270 236.800,222.000 236.980,222.000 237.200 M116.137 240.200 C 116.139 241.960,116.209 242.630,116.293 241.689 C 116.378 240.749,116.377 239.309,116.291 238.489 C 116.205 237.670,116.136 238.440,116.137 240.200 M235.600 237.823 C 235.600 238.226,238.125 241.200,238.467 241.200 C 238.650 241.200,238.773 240.345,238.740 239.300 L 238.680 237.400 238.440 239.172 L 238.200 240.944 237.046 239.272 C 235.943 237.675,235.600 237.331,235.600 237.823 M332.578 249.800 C 332.578 256.620,332.632 259.466,332.699 256.125 C 332.766 252.784,332.766 247.204,332.699 243.725 C 332.633 240.246,332.578 242.980,332.578 249.800 M103.775 248.600 C 103.775 254.540,103.831 257.026,103.899 254.124 C 103.967 251.222,103.967 246.362,103.899 243.324 C 103.831 240.286,103.775 242.660,103.775 248.600 M299.256 238.400 C 299.256 238.730,299.411 239.360,299.600 239.800 C 299.817 240.304,299.944 240.378,299.944 240.000 C 299.944 239.670,299.789 239.040,299.600 238.600 C 299.383 238.096,299.256 238.022,299.256 238.400 M58.818 239.234 C 59.064 239.693,59.344 239.989,59.442 239.892 C 59.722 239.612,59.154 238.400,58.743 238.400 C 58.539 238.400,58.573 238.775,58.818 239.234 M75.043 239.033 C 74.721 239.872,74.735 240.000,75.153 240.000 C 75.348 240.000,75.601 239.640,75.716 239.200 C 75.963 238.255,75.395 238.114,75.043 239.033 M280.000 239.000 C 280.000 239.330,280.180 239.600,280.400 239.600 C 280.620 239.600,280.800 239.330,280.800 239.000 C 280.800 238.670,280.620 238.400,280.400 238.400 C 280.180 238.400,280.000 238.670,280.000 239.000 M317.049 239.415 C 316.912 239.773,316.815 240.366,316.834 240.733 C 316.853 241.100,317.027 240.869,317.221 240.220 C 317.598 238.958,317.465 238.333,317.049 239.415 M290.229 240.229 C 290.081 240.815,290.038 241.372,290.132 241.466 C 290.227 241.560,290.424 241.158,290.571 240.571 C 290.719 239.985,290.762 239.428,290.668 239.334 C 290.573 239.240,290.376 239.642,290.229 240.229 M306.800 239.800 C 306.800 240.130,306.980 240.400,307.200 240.400 C 307.420 240.400,307.600 240.130,307.600 239.800 C 307.600 239.470,307.420 239.200,307.200 239.200 C 306.980 239.200,306.800 239.470,306.800 239.800 M325.378 239.635 C 325.231 239.874,325.310 240.270,325.555 240.515 C 325.882 240.842,326.000 240.726,326.000 240.080 C 326.000 239.114,325.792 238.965,325.378 239.635 M166.400 239.782 C 166.400 240.019,168.381 242.000,168.618 242.000 C 169.005 242.000,168.761 241.598,167.782 240.618 C 166.802 239.639,166.400 239.395,166.400 239.782 M184.800 241.000 C 184.800 241.550,184.955 242.000,185.145 242.000 C 185.334 242.000,185.403 241.550,185.298 241.000 C 185.193 240.450,185.038 240.000,184.953 240.000 C 184.869 240.000,184.800 240.450,184.800 241.000 M73.462 241.931 C 72.753 242.714,72.614 243.202,73.100 243.197 C 73.265 243.195,73.608 242.745,73.862 242.197 C 74.414 241.008,74.341 240.960,73.462 241.931 M154.033 242.545 C 154.125 242.624,155.280 242.787,156.600 242.907 C 158.049 243.038,158.683 242.992,158.200 242.790 C 157.430 242.469,153.693 242.249,154.033 242.545 M191.800 242.600 C 192.761 242.928,196.425 243.062,195.934 242.751 C 195.640 242.565,194.500 242.424,193.400 242.438 C 192.300 242.452,191.580 242.525,191.800 242.600 M228.500 242.687 C 229.105 242.778,230.095 242.778,230.700 242.687 C 231.305 242.595,230.810 242.520,229.600 242.520 C 228.390 242.520,227.895 242.595,228.500 242.687 M300.456 242.800 C 300.456 243.130,300.611 243.760,300.800 244.200 C 301.017 244.704,301.144 244.778,301.144 244.400 C 301.144 244.070,300.989 243.440,300.800 243.000 C 300.583 242.496,300.456 242.422,300.456 242.800 M281.277 244.028 C 281.227 244.672,281.370 245.200,281.594 245.200 C 282.070 245.200,282.148 243.338,281.683 243.051 C 281.509 242.944,281.326 243.383,281.277 244.028 M121.776 254.400 C 121.776 260.670,121.832 263.235,121.899 260.100 C 121.967 256.965,121.967 251.835,121.899 248.700 C 121.832 245.565,121.776 248.130,121.776 254.400 M129.320 245.200 C 129.320 246.410,129.395 246.905,129.487 246.300 C 129.578 245.695,129.578 244.705,129.487 244.100 C 129.395 243.495,129.320 243.990,129.320 245.200 M150.522 244.229 L 149.400 245.258 150.700 244.354 C 151.415 243.857,152.000 243.393,152.000 243.325 C 152.000 243.009,151.558 243.280,150.522 244.229 M234.524 244.066 C 235.142 244.581,236.013 245.452,236.459 246.001 C 236.905 246.551,237.137 246.730,236.975 246.400 C 236.509 245.449,235.073 243.963,234.200 243.528 C 233.744 243.300,233.883 243.531,234.524 244.066 M296.229 244.229 C 296.081 244.815,296.038 245.372,296.132 245.466 C 296.227 245.560,296.424 245.158,296.571 244.571 C 296.719 243.985,296.762 243.428,296.668 243.334 C 296.573 243.240,296.376 243.642,296.229 244.229 M308.000 244.400 C 308.000 244.840,308.180 245.200,308.400 245.200 C 308.620 245.200,308.800 244.840,308.800 244.400 C 308.800 243.960,308.620 243.600,308.400 243.600 C 308.180 243.600,308.000 243.960,308.000 244.400 M315.829 244.629 C 315.681 245.215,315.638 245.772,315.732 245.866 C 315.827 245.960,316.024 245.558,316.171 244.971 C 316.319 244.385,316.362 243.828,316.268 243.734 C 316.173 243.640,315.976 244.042,315.829 244.629 M161.594 245.003 C 163.187 246.921,163.321 247.045,162.886 246.196 C 162.659 245.753,162.052 245.034,161.537 244.598 C 160.633 243.834,160.635 243.848,161.594 245.003 M323.606 245.100 C 323.611 245.957,323.698 246.068,324.000 245.600 C 324.506 244.817,324.506 244.000,324.000 244.000 C 323.780 244.000,323.603 244.495,323.606 245.100 M71.247 245.273 C 70.879 245.862,70.857 246.217,71.167 246.527 C 71.478 246.838,71.600 246.705,71.600 246.056 C 71.600 245.556,71.778 245.263,72.000 245.400 C 72.220 245.536,72.400 245.467,72.400 245.247 C 72.400 244.454,71.749 244.469,71.247 245.273 M222.880 246.080 C 222.316 246.644,222.253 247.200,222.753 247.200 C 222.948 247.200,223.201 246.840,223.316 246.400 C 223.560 245.466,223.522 245.438,222.880 246.080 M301.256 246.000 C 301.256 246.330,301.411 246.960,301.600 247.400 C 301.817 247.904,301.944 247.978,301.944 247.600 C 301.944 247.270,301.789 246.640,301.600 246.200 C 301.383 245.696,301.256 245.622,301.256 246.000 M170.800 246.600 C 170.800 246.930,170.980 247.200,171.200 247.200 C 171.420 247.200,171.600 246.930,171.600 246.600 C 171.600 246.270,171.420 246.000,171.200 246.000 C 170.980 246.000,170.800 246.270,170.800 246.600 M282.212 246.517 C 282.041 246.912,282.013 247.347,282.151 247.484 C 282.557 247.890,282.884 247.320,282.697 246.531 C 282.532 245.833,282.510 245.832,282.212 246.517 M309.012 246.517 C 308.841 246.912,308.813 247.347,308.951 247.484 C 309.357 247.890,309.684 247.320,309.497 246.531 C 309.332 245.833,309.310 245.832,309.012 246.517 M69.884 247.600 C 69.769 248.040,69.817 248.400,69.991 248.400 C 70.165 248.400,70.401 248.040,70.516 247.600 C 70.631 247.160,70.583 246.800,70.409 246.800 C 70.235 246.800,69.999 247.160,69.884 247.600 M199.693 248.800 C 199.693 249.570,199.775 249.885,199.876 249.500 C 199.976 249.115,199.976 248.485,199.876 248.100 C 199.775 247.715,199.693 248.030,199.693 248.800 M295.000 248.800 C 294.848 249.491,294.807 250.141,294.909 250.242 C 295.011 250.344,295.209 249.853,295.350 249.150 C 295.491 248.447,295.531 247.798,295.441 247.708 C 295.350 247.617,295.152 248.109,295.000 248.800 M221.600 248.600 C 221.600 248.930,221.780 249.200,222.000 249.200 C 222.220 249.200,222.400 248.930,222.400 248.600 C 222.400 248.270,222.220 248.000,222.000 248.000 C 221.780 248.000,221.600 248.270,221.600 248.600 M139.800 249.600 C 139.648 250.291,139.607 250.941,139.709 251.042 C 139.811 251.144,140.009 250.653,140.150 249.950 C 140.483 248.283,140.160 247.960,139.800 249.600 M309.256 249.200 C 309.256 249.530,309.411 250.160,309.600 250.600 C 309.817 251.104,309.944 251.178,309.944 250.800 C 309.944 250.470,309.789 249.840,309.600 249.400 C 309.383 248.896,309.256 248.822,309.256 249.200 M67.843 250.633 C 67.521 251.472,67.535 251.600,67.953 251.600 C 68.148 251.600,68.401 251.240,68.516 250.800 C 68.763 249.855,68.195 249.714,67.843 250.633 M221.200 251.200 C 221.200 251.860,221.380 252.400,221.600 252.400 C 221.820 252.400,222.000 251.860,222.000 251.200 C 222.000 250.540,221.820 250.000,221.600 250.000 C 221.380 250.000,221.200 250.540,221.200 251.200 M302.456 250.400 C 302.456 250.730,302.611 251.360,302.800 251.800 C 303.017 252.304,303.144 252.378,303.144 252.000 C 303.144 251.670,302.989 251.040,302.800 250.600 C 302.583 250.096,302.456 250.022,302.456 250.400 M213.337 253.800 C 213.339 255.560,213.409 256.230,213.493 255.289 C 213.578 254.349,213.577 252.909,213.491 252.089 C 213.405 251.270,213.336 252.040,213.337 253.800 M294.400 251.400 C 294.400 251.730,294.580 252.000,294.800 252.000 C 295.020 252.000,295.200 251.730,295.200 251.400 C 295.200 251.070,295.020 250.800,294.800 250.800 C 294.580 250.800,294.400 251.070,294.400 251.400 M207.709 252.800 C 207.709 253.790,207.787 254.195,207.882 253.700 C 207.978 253.205,207.978 252.395,207.882 251.900 C 207.787 251.405,207.709 251.810,207.709 252.800 M238.531 253.800 C 238.533 255.340,238.605 255.921,238.692 255.091 C 238.779 254.261,238.777 253.001,238.689 252.291 C 238.600 251.581,238.529 252.260,238.531 253.800 M287.029 252.229 C 286.881 252.815,286.838 253.372,286.932 253.466 C 287.027 253.560,287.224 253.158,287.371 252.571 C 287.519 251.985,287.562 251.428,287.468 251.334 C 287.373 251.240,287.176 251.642,287.029 252.229 M321.892 251.442 C 321.731 251.602,321.605 252.108,321.612 252.567 C 321.623 253.336,321.656 253.345,322.040 252.685 C 322.488 251.916,322.373 250.960,321.892 251.442 M313.850 252.850 C 313.709 253.553,313.669 254.202,313.759 254.292 C 313.850 254.383,314.048 253.891,314.200 253.200 C 314.352 252.509,314.393 251.859,314.291 251.758 C 314.189 251.656,313.991 252.147,313.850 252.850 M139.328 254.400 C 139.328 255.830,139.401 256.415,139.489 255.700 C 139.578 254.985,139.578 253.815,139.489 253.100 C 139.401 252.385,139.328 252.970,139.328 254.400 M58.172 262.200 C 58.172 267.260,58.229 269.275,58.299 266.677 C 58.369 264.080,58.368 259.940,58.298 257.477 C 58.228 255.015,58.171 257.140,58.172 262.200 M310.456 254.000 C 310.456 254.330,310.611 254.960,310.800 255.400 C 311.017 255.904,311.144 255.978,311.144 255.600 C 311.144 255.270,310.989 254.640,310.800 254.200 C 310.583 253.696,310.456 253.622,310.456 254.000 M221.200 256.576 C 221.200 257.359,221.380 258.000,221.600 258.000 C 221.820 258.000,222.000 257.471,222.000 256.824 C 222.000 256.177,221.820 255.536,221.600 255.400 C 221.362 255.253,221.200 255.729,221.200 256.576 M320.400 256.200 C 320.400 256.530,320.580 256.800,320.800 256.800 C 321.020 256.800,321.200 256.530,321.200 256.200 C 321.200 255.870,321.020 255.600,320.800 255.600 C 320.580 255.600,320.400 255.870,320.400 256.200 M311.230 257.040 C 311.146 258.269,312.115 260.095,312.493 259.420 C 312.702 259.046,312.767 258.633,312.637 258.503 C 312.506 258.373,312.386 258.522,312.370 258.833 C 312.353 259.145,312.097 258.770,311.800 258.000 C 311.503 257.230,311.247 256.798,311.230 257.040 M139.606 258.633 C 139.609 259.055,139.795 259.670,140.018 260.000 C 140.315 260.438,140.352 260.276,140.156 259.400 C 139.827 257.929,139.598 257.610,139.606 258.633 M284.400 258.247 C 284.400 258.467,284.664 258.996,284.987 259.424 C 285.310 259.851,285.575 260.020,285.575 259.800 C 285.575 259.580,285.310 259.051,284.987 258.624 C 284.664 258.196,284.400 258.027,284.400 258.247 M213.606 259.033 C 213.609 259.455,213.795 260.070,214.018 260.400 C 214.315 260.838,214.352 260.676,214.156 259.800 C 213.827 258.329,213.598 258.010,213.606 259.033 M163.800 260.306 C 163.286 260.684,163.023 262.157,163.525 261.846 C 163.733 261.718,163.998 261.250,164.114 260.806 C 164.351 259.901,164.351 259.901,163.800 260.306 M277.656 260.800 C 277.656 261.130,277.811 261.760,278.000 262.200 C 278.217 262.704,278.344 262.778,278.344 262.400 C 278.344 262.070,278.189 261.440,278.000 261.000 C 277.783 260.496,277.656 260.422,277.656 260.800 M235.626 262.507 C 234.487 263.911,234.442 264.029,235.363 263.200 C 236.320 262.338,237.456 260.786,237.114 260.807 C 237.051 260.811,236.382 261.576,235.626 262.507 M291.628 261.900 C 291.653 262.875,291.695 262.909,292.000 262.200 C 292.469 261.107,292.469 260.800,292.000 260.800 C 291.780 260.800,291.613 261.295,291.628 261.900 M207.714 263.000 C 207.717 264.100,207.795 264.503,207.887 263.895 C 207.979 263.286,207.977 262.386,207.882 261.895 C 207.787 261.403,207.711 261.900,207.714 263.000 M81.668 262.200 C 81.662 262.640,81.811 263.360,82.000 263.800 C 82.438 264.819,82.438 263.768,82.000 262.400 C 81.743 261.596,81.677 261.557,81.668 262.200 M168.863 265.600 C 168.375 266.260,168.123 266.800,168.302 266.800 C 168.481 266.800,168.946 266.260,169.336 265.600 C 169.726 264.940,169.979 264.400,169.898 264.400 C 169.817 264.400,169.351 264.940,168.863 265.600 M318.000 265.800 C 318.000 266.130,318.180 266.400,318.400 266.400 C 318.620 266.400,318.800 266.130,318.800 265.800 C 318.800 265.470,318.620 265.200,318.400 265.200 C 318.180 265.200,318.000 265.470,318.000 265.800 M348.400 265.600 C 347.596 265.857,347.557 265.923,348.200 265.932 C 348.640 265.938,349.360 265.789,349.800 265.600 C 350.819 265.162,349.768 265.162,348.400 265.600 M133.500 265.882 C 133.995 265.978,134.805 265.978,135.300 265.882 C 135.795 265.787,135.390 265.709,134.400 265.709 C 133.410 265.709,133.005 265.787,133.500 265.882 M143.983 267.300 C 145.641 269.066,146.000 269.384,146.000 269.083 C 146.000 269.019,145.145 268.164,144.100 267.183 L 142.200 265.400 143.983 267.300 M217.800 267.200 C 218.659 268.080,219.452 268.800,219.562 268.800 C 219.672 268.800,219.059 268.080,218.200 267.200 C 217.341 266.320,216.548 265.600,216.438 265.600 C 216.328 265.600,216.941 266.320,217.800 267.200 M238.312 268.499 C 238.502 272.750,238.677 273.160,238.740 269.500 C 238.773 267.575,238.665 266.000,238.500 265.999 C 238.335 265.999,238.250 267.124,238.312 268.499 M103.509 268.700 C 103.739 271.022,103.934 271.191,103.968 269.100 C 103.986 268.055,103.856 267.200,103.680 267.200 C 103.504 267.200,103.428 267.875,103.509 268.700 M353.178 268.700 L 351.800 270.200 353.300 268.822 C 354.696 267.538,354.984 267.200,354.678 267.200 C 354.612 267.200,353.937 267.875,353.178 268.700 M83.600 267.725 C 83.600 267.794,84.185 268.379,84.900 269.025 L 86.200 270.200 85.025 268.900 C 83.930 267.688,83.600 267.416,83.600 267.725 M165.400 269.057 L 164.200 270.085 165.500 269.356 C 166.215 268.955,166.800 268.486,166.800 268.314 C 166.800 267.875,166.746 267.903,165.400 269.057 M279.656 268.400 C 279.656 268.730,279.811 269.360,280.000 269.800 C 280.217 270.304,280.344 270.378,280.344 270.000 C 280.344 269.670,280.189 269.040,280.000 268.600 C 279.783 268.096,279.656 268.022,279.656 268.400 M289.867 268.267 C 289.720 268.413,289.611 268.908,289.625 269.367 C 289.649 270.133,289.682 270.123,290.034 269.242 C 290.426 268.263,290.344 267.789,289.867 268.267 M336.385 269.571 C 337.147 270.247,337.942 270.800,338.152 270.800 C 338.362 270.800,338.458 270.748,338.367 270.684 C 338.275 270.620,337.480 270.067,336.600 269.455 L 335.000 268.342 336.385 269.571 M136.400 270.549 C 136.400 270.883,135.753 271.201,134.747 271.362 C 133.837 271.508,133.183 271.717,133.293 271.827 C 133.843 272.376,136.800 271.467,136.800 270.749 C 136.800 270.337,136.710 270.000,136.600 270.000 C 136.490 270.000,136.400 270.247,136.400 270.549 M177.955 271.316 C 178.130 271.491,179.877 271.579,181.836 271.514 L 185.400 271.394 181.518 271.197 C 179.383 271.089,177.780 271.142,177.955 271.316 M60.700 271.493 C 61.635 271.577,63.165 271.577,64.100 271.493 C 65.035 271.409,64.270 271.340,62.400 271.340 C 60.530 271.340,59.765 271.409,60.700 271.493 M106.311 271.493 C 107.251 271.578,108.691 271.577,109.511 271.491 C 110.330 271.405,109.560 271.336,107.800 271.337 C 106.040 271.339,105.370 271.409,106.311 271.493 M126.600 271.600 C 127.040 271.789,127.670 271.944,128.000 271.944 C 128.378 271.944,128.304 271.817,127.800 271.600 C 127.360 271.411,126.730 271.256,126.400 271.256 C 126.022 271.256,126.096 271.383,126.600 271.600 M151.400 271.600 C 151.840 271.789,152.560 271.938,153.000 271.932 C 153.643 271.923,153.604 271.857,152.800 271.600 C 151.432 271.162,150.381 271.162,151.400 271.600 M159.200 271.600 C 158.396 271.857,158.357 271.923,159.000 271.932 C 159.440 271.938,160.160 271.789,160.600 271.600 C 161.619 271.162,160.568 271.162,159.200 271.600 M202.100 271.494 C 203.145 271.576,204.855 271.576,205.900 271.494 C 206.945 271.412,206.090 271.344,204.000 271.344 C 201.910 271.344,201.055 271.412,202.100 271.494 M227.305 271.487 C 227.914 271.579,228.814 271.577,229.305 271.482 C 229.797 271.387,229.300 271.311,228.200 271.314 C 227.100 271.317,226.697 271.395,227.305 271.487 M283.113 271.495 C 284.276 271.576,286.076 271.576,287.113 271.493 C 288.151 271.411,287.200 271.345,285.000 271.346 C 282.800 271.347,281.951 271.414,283.113 271.495 M310.500 271.494 C 311.545 271.576,313.255 271.576,314.300 271.494 C 315.345 271.412,314.490 271.344,312.400 271.344 C 310.310 271.344,309.455 271.412,310.500 271.494 M347.400 271.600 C 346.896 271.817,346.822 271.944,347.200 271.944 C 347.530 271.944,348.160 271.789,348.600 271.600 C 349.104 271.383,349.178 271.256,348.800 271.256 C 348.470 271.256,347.840 271.411,347.400 271.600 M357.500 271.493 C 358.435 271.577,359.965 271.577,360.900 271.493 C 361.835 271.409,361.070 271.340,359.200 271.340 C 357.330 271.340,356.565 271.409,357.500 271.493 M246.000 273.000 C 246.000 273.550,246.180 274.000,246.400 274.000 C 246.620 274.000,246.800 273.550,246.800 273.000 C 246.800 272.450,246.620 272.000,246.400 272.000 C 246.180 272.000,246.000 272.450,246.000 273.000 M222.400 275.425 C 222.400 275.553,222.654 275.911,222.964 276.221 C 223.275 276.532,223.610 277.014,223.710 277.293 C 223.809 277.572,224.009 277.691,224.155 277.557 C 224.560 277.184,224.073 276.238,223.192 275.688 C 222.757 275.416,222.400 275.298,222.400 275.425 M245.412 275.717 C 245.241 276.112,245.213 276.547,245.351 276.684 C 245.757 277.090,246.084 276.520,245.897 275.731 C 245.732 275.033,245.710 275.032,245.412 275.717 M244.800 277.767 C 244.800 278.078,244.575 278.414,244.300 278.512 C 244.025 278.610,243.931 278.831,244.090 279.002 C 244.250 279.174,244.655 279.086,244.990 278.808 C 245.676 278.239,245.811 277.200,245.200 277.200 C 244.980 277.200,244.800 277.455,244.800 277.767 M216.998 280.737 C 217.434 281.252,218.153 281.859,218.596 282.086 C 219.445 282.521,219.321 282.387,217.403 280.794 C 216.248 279.835,216.234 279.833,216.998 280.737 M240.700 282.229 C 239.344 282.965,239.310 283.145,240.573 282.903 C 241.108 282.801,241.643 282.466,241.761 282.159 C 242.017 281.490,242.068 281.487,240.700 282.229 M228.311 285.093 C 229.251 285.178,230.691 285.177,231.511 285.091 C 232.330 285.005,231.560 284.936,229.800 284.937 C 228.040 284.939,227.370 285.009,228.311 285.093 " stroke="none" fill="#847444" fill-rule="evenodd"></path><path id="path4" d="M328.419 227.377 C 328.147 227.705,328.017 228.204,328.131 228.487 C 328.266 228.823,328.348 228.770,328.368 228.333 C 328.386 227.967,328.625 227.586,328.900 227.488 C 329.175 227.390,329.291 227.191,329.157 227.045 C 329.023 226.900,328.691 227.049,328.419 227.377 M129.354 232.000 C 129.354 234.750,129.418 235.875,129.496 234.500 C 129.574 233.125,129.574 230.875,129.496 229.500 C 129.418 228.125,129.354 229.250,129.354 232.000 M136.140 240.000 C 136.140 241.870,136.209 242.635,136.293 241.700 C 136.377 240.765,136.377 239.235,136.293 238.300 C 136.209 237.365,136.140 238.130,136.140 240.000 M238.928 239.200 C 238.928 240.630,239.001 241.215,239.089 240.500 C 239.178 239.785,239.178 238.615,239.089 237.900 C 239.001 237.185,238.928 237.770,238.928 239.200 M246.000 253.976 C 246.000 265.192,246.140 271.200,246.400 271.200 C 246.660 271.200,246.800 265.275,246.800 254.224 C 246.800 243.337,246.657 237.159,246.400 237.000 C 246.136 236.837,246.000 242.596,246.000 253.976 M81.777 249.400 C 81.777 255.780,81.832 258.334,81.899 255.076 C 81.967 251.817,81.966 246.597,81.899 243.476 C 81.831 240.354,81.776 243.020,81.777 249.400 M354.974 248.000 C 354.974 253.610,355.030 255.905,355.099 253.100 C 355.168 250.295,355.168 245.705,355.099 242.900 C 355.030 240.095,354.974 242.390,354.974 248.000 M204.308 239.600 C 204.780 240.040,205.388 240.400,205.659 240.400 C 205.929 240.400,205.764 240.040,205.292 239.600 C 204.820 239.160,204.212 238.800,203.941 238.800 C 203.671 238.800,203.836 239.160,204.308 239.600 M184.526 241.169 C 184.567 241.701,184.870 242.210,185.200 242.299 C 185.596 242.406,185.646 242.349,185.346 242.130 C 185.097 241.949,184.793 241.440,184.672 241.000 C 184.499 240.369,184.468 240.405,184.526 241.169 M207.351 250.000 C 207.351 252.530,207.416 253.565,207.496 252.300 C 207.575 251.035,207.575 248.965,207.496 247.700 C 207.416 246.435,207.351 247.470,207.351 250.000 M129.367 254.600 C 129.367 258.780,129.426 260.436,129.498 258.279 C 129.571 256.123,129.570 252.703,129.498 250.679 C 129.425 248.656,129.366 250.420,129.367 254.600 M158.912 251.095 C 159.964 251.177,161.584 251.176,162.512 251.092 C 163.440 251.008,162.580 250.941,160.600 250.942 C 158.620 250.943,157.860 251.012,158.912 251.095 M139.728 254.400 C 139.728 255.830,139.801 256.415,139.889 255.700 C 139.978 254.985,139.978 253.815,139.889 253.100 C 139.801 252.385,139.728 252.970,139.728 254.400 M238.909 253.600 C 238.909 254.590,238.987 254.995,239.082 254.500 C 239.178 254.005,239.178 253.195,239.082 252.700 C 238.987 252.205,238.909 252.610,238.909 253.600 M66.399 261.881 C 66.290 266.985,66.339 271.023,66.508 270.853 C 66.677 270.683,66.767 266.507,66.707 261.572 L 66.599 252.600 66.399 261.881 M207.357 266.000 C 207.357 268.970,207.420 270.185,207.497 268.700 C 207.574 267.215,207.574 264.785,207.497 263.300 C 207.420 261.815,207.357 263.030,207.357 266.000 M318.702 261.800 C 318.597 262.350,318.666 262.800,318.855 262.800 C 319.045 262.800,319.200 262.350,319.200 261.800 C 319.200 261.250,319.131 260.800,319.047 260.800 C 318.962 260.800,318.807 261.250,318.702 261.800 M238.713 267.899 C 238.910 271.913,239.078 272.307,239.140 268.900 C 239.173 267.085,239.065 265.600,238.900 265.599 C 238.735 265.599,238.651 266.634,238.713 267.899 M92.707 271.890 C 93.426 271.979,94.506 271.977,95.107 271.886 C 95.708 271.795,95.120 271.722,93.800 271.724 C 92.480 271.726,91.988 271.801,92.707 271.890 M129.700 271.887 C 130.305 271.978,131.295 271.978,131.900 271.887 C 132.505 271.795,132.010 271.720,130.800 271.720 C 129.590 271.720,129.095 271.795,129.700 271.887 M154.900 271.887 C 155.505 271.978,156.495 271.978,157.100 271.887 C 157.705 271.795,157.210 271.720,156.000 271.720 C 154.790 271.720,154.295 271.795,154.900 271.887 M343.700 271.887 C 344.305 271.978,345.295 271.978,345.900 271.887 C 346.505 271.795,346.010 271.720,344.800 271.720 C 343.590 271.720,343.095 271.795,343.700 271.887 M224.400 278.009 C 224.400 278.173,224.850 278.393,225.400 278.498 C 225.950 278.603,226.400 278.555,226.400 278.391 C 226.400 278.227,225.950 278.007,225.400 277.902 C 224.850 277.797,224.400 277.845,224.400 278.009 " stroke="none" fill="#ab944c" fill-rule="evenodd"></path><path id="path5" d="M294.752 225.513 C 294.621 226.307,294.679 226.681,294.901 226.459 C 295.103 226.257,295.201 225.667,295.119 225.146 C 294.993 224.345,294.937 224.402,294.752 225.513 M128.472 232.076 C 128.432 234.868,128.535 237.237,128.700 237.340 C 128.865 237.442,128.952 235.968,128.893 234.063 C 128.695 227.672,128.545 226.962,128.472 232.076 M326.620 231.700 C 326.262 232.853,326.137 234.362,326.414 234.192 C 326.577 234.090,326.785 233.376,326.875 232.604 C 327.039 231.202,326.913 230.755,326.620 231.700 M297.646 236.467 C 297.621 236.834,297.496 237.464,297.370 237.867 C 297.152 238.562,297.163 238.563,297.597 237.887 C 297.848 237.496,297.973 236.866,297.873 236.487 C 297.711 235.868,297.688 235.866,297.646 236.467 M153.600 236.733 C 153.600 236.990,153.105 237.225,152.500 237.254 C 151.490 237.304,151.478 237.324,152.346 237.488 C 153.319 237.673,154.360 237.027,153.873 236.540 C 153.723 236.390,153.600 236.477,153.600 236.733 M184.079 239.513 C 183.994 242.635,184.631 243.632,185.832 242.256 C 186.146 241.897,186.186 241.782,185.921 242.001 C 184.785 242.942,184.435 242.403,184.297 239.500 L 184.159 236.600 184.079 239.513 M197.941 237.301 C 198.143 237.503,198.733 237.601,199.254 237.519 C 200.055 237.393,199.998 237.337,198.887 237.152 C 198.093 237.021,197.719 237.079,197.941 237.301 M230.741 237.301 C 230.943 237.503,231.533 237.601,232.054 237.519 C 232.855 237.393,232.798 237.337,231.687 237.152 C 230.893 237.021,230.519 237.079,230.741 237.301 M239.276 239.267 C 239.227 240.964,239.018 242.007,238.700 242.135 C 238.308 242.293,238.311 242.344,238.713 242.368 C 239.469 242.415,239.660 241.584,239.497 238.955 L 239.351 236.600 239.276 239.267 M223.600 237.545 C 223.600 237.734,224.050 237.803,224.600 237.698 C 225.150 237.593,225.600 237.438,225.600 237.353 C 225.600 237.269,225.150 237.200,224.600 237.200 C 224.050 237.200,223.600 237.355,223.600 237.545 M339.776 248.200 C 339.776 254.360,339.832 256.824,339.899 253.676 C 339.967 250.527,339.967 245.487,339.899 242.476 C 339.831 239.464,339.776 242.040,339.776 248.200 M116.531 240.200 C 116.533 241.740,116.605 242.321,116.692 241.491 C 116.779 240.661,116.777 239.401,116.689 238.691 C 116.600 237.981,116.529 238.660,116.531 240.200 M104.175 248.800 C 104.175 254.850,104.231 257.325,104.299 254.300 C 104.367 251.275,104.367 246.325,104.299 243.300 C 104.231 240.275,104.175 242.750,104.175 248.800 M165.200 240.082 C 165.200 240.213,165.830 240.950,166.600 241.720 C 167.370 242.490,168.000 242.993,168.000 242.838 C 168.000 242.684,167.370 241.946,166.600 241.200 C 165.830 240.454,165.200 239.950,165.200 240.082 M279.915 241.600 C 280.012 242.260,280.160 242.800,280.245 242.800 C 280.330 242.800,280.400 242.260,280.400 241.600 C 280.400 240.940,280.251 240.400,280.069 240.400 C 279.887 240.400,279.818 240.940,279.915 241.600 M306.763 242.079 C 306.904 242.773,307.245 243.385,307.520 243.440 C 307.795 243.495,307.836 243.449,307.610 243.337 C 307.385 243.225,307.200 242.709,307.200 242.190 C 307.200 241.672,307.044 241.151,306.852 241.032 C 306.661 240.914,306.621 241.385,306.763 242.079 M154.291 242.289 C 155.001 242.377,156.261 242.379,157.091 242.292 C 157.921 242.205,157.340 242.133,155.800 242.131 C 154.260 242.129,153.581 242.200,154.291 242.289 M191.891 242.289 C 192.601 242.377,193.861 242.379,194.691 242.292 C 195.521 242.205,194.940 242.133,193.400 242.131 C 191.860 242.129,191.181 242.200,191.891 242.289 M228.311 242.293 C 229.251 242.378,230.691 242.377,231.511 242.291 C 232.330 242.205,231.560 242.136,229.800 242.137 C 228.040 242.139,227.370 242.209,228.311 242.293 M128.580 243.308 C 128.037 244.722,128.609 263.336,129.200 263.497 C 129.658 263.622,129.678 263.575,129.286 263.298 C 128.886 263.016,128.798 260.714,128.886 252.868 C 128.998 242.997,128.975 242.279,128.580 243.308 M206.978 258.200 C 206.979 265.240,207.033 268.064,207.099 264.475 C 207.166 260.886,207.166 255.126,207.099 251.675 C 207.033 248.224,206.978 251.160,206.978 258.200 M239.324 253.800 C 239.326 255.120,239.401 255.612,239.490 254.893 C 239.579 254.174,239.577 253.094,239.486 252.493 C 239.395 251.892,239.322 252.480,239.324 253.800 M220.201 253.596 C 219.910 254.513,220.233 255.214,220.924 255.168 C 221.267 255.146,221.261 255.081,220.900 254.935 C 220.306 254.696,220.224 253.600,220.800 253.600 C 221.020 253.600,221.200 253.420,221.200 253.200 C 221.200 252.485,220.461 252.778,220.201 253.596 M65.771 262.000 C 65.771 266.950,65.828 268.975,65.899 266.500 C 65.969 264.025,65.969 259.975,65.899 257.500 C 65.828 255.025,65.771 257.050,65.771 262.000 M283.152 255.287 C 283.337 256.398,283.393 256.455,283.519 255.654 C 283.601 255.133,283.503 254.543,283.301 254.341 C 283.079 254.119,283.021 254.493,283.152 255.287 M292.352 256.313 C 292.221 257.107,292.279 257.481,292.501 257.259 C 292.703 257.057,292.801 256.467,292.719 255.946 C 292.593 255.145,292.537 255.202,292.352 256.313 M319.102 259.000 C 318.997 259.550,319.066 260.000,319.255 260.000 C 319.445 260.000,319.600 259.550,319.600 259.000 C 319.600 258.450,319.531 258.000,319.447 258.000 C 319.362 258.000,319.207 258.450,319.102 259.000 M221.106 259.418 C 221.210 259.965,221.428 260.494,221.590 260.594 C 221.752 260.694,221.799 260.329,221.694 259.782 C 221.590 259.235,221.372 258.706,221.210 258.606 C 221.048 258.506,221.001 258.871,221.106 259.418 M89.106 262.218 C 89.210 262.765,89.428 263.294,89.590 263.394 C 89.752 263.494,89.799 263.129,89.694 262.582 C 89.590 262.035,89.372 261.506,89.210 261.406 C 89.048 261.306,89.001 261.671,89.106 262.218 M290.446 263.467 C 290.421 263.724,290.284 264.264,290.141 264.667 C 289.940 265.236,289.994 265.297,290.379 264.942 C 290.652 264.691,290.789 264.151,290.684 263.742 C 290.579 263.334,290.472 263.210,290.446 263.467 M92.000 265.607 C 92.550 266.033,93.270 266.365,93.600 266.345 C 94.023 266.318,93.994 266.253,93.500 266.124 C 93.115 266.024,92.800 265.796,92.800 265.617 C 92.800 265.439,92.395 265.190,91.900 265.063 C 91.031 264.840,91.035 264.859,92.000 265.607 M129.200 265.070 C 129.200 265.848,131.068 266.448,133.021 266.297 L 135.000 266.144 132.831 266.072 C 131.460 266.026,130.394 265.757,129.931 265.338 C 129.529 264.974,129.200 264.853,129.200 265.070 M317.115 266.000 C 317.018 266.660,317.087 267.200,317.269 267.200 C 317.451 267.200,317.600 266.660,317.600 266.000 C 317.600 265.340,317.530 264.800,317.445 264.800 C 317.360 264.800,317.212 265.340,317.115 266.000 M239.344 268.800 C 239.344 270.890,239.412 271.745,239.494 270.700 C 239.576 269.655,239.576 267.945,239.494 266.900 C 239.412 265.855,239.344 266.710,239.344 268.800 M98.200 266.000 L 97.000 266.305 98.076 266.353 C 98.668 266.379,99.264 266.220,99.400 266.000 C 99.536 265.780,99.592 265.621,99.524 265.647 C 99.456 265.673,98.860 265.832,98.200 266.000 M144.400 267.000 C 145.146 267.770,145.847 268.400,145.957 268.400 C 146.067 268.400,145.546 267.770,144.800 267.000 C 144.054 266.230,143.353 265.600,143.243 265.600 C 143.133 265.600,143.654 266.230,144.400 267.000 M347.552 266.112 C 347.745 266.305,348.419 266.398,349.051 266.319 C 350.109 266.187,350.081 266.159,348.700 265.968 C 347.840 265.849,347.350 265.910,347.552 266.112 M157.700 266.276 C 158.085 266.376,158.715 266.376,159.100 266.276 C 159.485 266.175,159.170 266.093,158.400 266.093 C 157.630 266.093,157.315 266.175,157.700 266.276 M104.394 268.719 L 104.587 271.000 104.718 269.044 C 104.790 267.969,104.703 266.942,104.524 266.763 C 104.346 266.584,104.287 267.464,104.394 268.719 M355.111 268.100 C 355.328 270.902,355.504 271.141,355.554 268.700 C 355.579 267.435,355.460 266.400,355.289 266.400 C 355.119 266.400,355.038 267.165,355.111 268.100 M133.052 271.116 C 132.944 271.290,133.473 271.361,134.228 271.273 C 134.983 271.185,135.600 271.042,135.600 270.956 C 135.600 270.655,133.245 270.803,133.052 271.116 M151.600 270.955 C 151.600 271.040,152.130 271.187,152.779 271.282 C 153.427 271.377,153.867 271.308,153.755 271.128 C 153.557 270.807,151.600 270.650,151.600 270.955 M158.245 271.128 C 158.133 271.308,158.573 271.377,159.221 271.282 C 159.870 271.187,160.400 271.040,160.400 270.955 C 160.400 270.650,158.443 270.807,158.245 271.128 M241.829 280.362 L 240.658 281.800 242.009 280.513 C 242.751 279.805,243.278 279.158,243.179 279.075 C 243.081 278.992,242.473 279.571,241.829 280.362 " stroke="none" fill="#e4cc4c" fill-rule="evenodd"></path><path id="path6" d="M110.914 238.600 C 110.917 239.700,110.995 240.103,111.087 239.495 C 111.179 238.886,111.177 237.986,111.082 237.495 C 110.987 237.003,110.911 237.500,110.914 238.600 M245.784 254.000 C 245.784 263.570,245.836 267.485,245.900 262.700 C 245.963 257.915,245.963 250.085,245.900 245.300 C 245.836 240.515,245.784 244.430,245.784 254.000 M162.199 237.998 C 162.607 238.658,164.000 239.289,164.000 238.814 C 164.000 238.586,163.730 238.400,163.400 238.400 C 163.070 238.400,162.800 238.220,162.800 238.000 C 162.800 237.780,162.609 237.600,162.376 237.600 C 162.143 237.600,162.063 237.779,162.199 237.998 M110.894 258.683 L 110.800 270.766 107.700 270.903 L 104.600 271.039 107.713 271.120 C 111.579 271.219,111.235 272.514,111.100 258.395 L 110.987 246.600 110.894 258.683 M200.191 259.500 L 200.200 271.000 203.800 271.026 L 207.400 271.053 203.906 270.911 L 200.412 270.769 200.297 259.384 L 200.181 248.000 200.191 259.500 M184.893 260.484 L 184.800 270.769 181.300 270.902 L 177.800 271.035 181.313 271.118 C 185.627 271.219,185.239 272.338,185.100 260.193 L 184.985 250.200 184.893 260.484 M58.589 262.200 L 58.600 271.000 62.301 271.024 L 66.002 271.048 62.409 270.909 L 58.815 270.770 58.696 262.085 L 58.577 253.400 58.589 262.200 M220.400 254.200 C 220.400 254.530,220.580 254.800,220.800 254.800 C 221.020 254.800,221.200 254.530,221.200 254.200 C 221.200 253.870,221.020 253.600,220.800 253.600 C 220.580 253.600,220.400 253.870,220.400 254.200 M291.152 261.513 C 291.021 262.307,291.079 262.681,291.301 262.459 C 291.503 262.257,291.601 261.667,291.519 261.146 C 291.393 260.345,291.337 260.402,291.152 261.513 M316.000 270.333 C 316.000 270.649,314.805 270.827,312.300 270.882 L 308.600 270.965 312.164 271.099 C 315.457 271.223,316.997 270.864,316.273 270.140 C 316.123 269.990,316.000 270.077,316.000 270.333 M227.305 271.087 C 227.914 271.179,228.814 271.177,229.305 271.082 C 229.797 270.987,229.300 270.911,228.200 270.914 C 227.100 270.917,226.697 270.995,227.305 271.087 M283.113 271.095 C 284.276 271.176,286.076 271.176,287.113 271.093 C 288.151 271.011,287.200 270.945,285.000 270.946 C 282.800 270.947,281.951 271.014,283.113 271.095 M357.100 271.093 C 358.035 271.177,359.565 271.177,360.500 271.093 C 361.435 271.009,360.670 270.940,358.800 270.940 C 356.930 270.940,356.165 271.009,357.100 271.093 " stroke="none" fill="#d4bc4c" fill-rule="evenodd"></path><path id="path7" d="M122.155 232.200 C 122.156 235.060,122.220 236.178,122.297 234.683 C 122.374 233.189,122.374 230.849,122.296 229.483 C 122.218 228.118,122.155 229.340,122.155 232.200 M128.870 232.100 C 128.831 234.905,128.935 237.200,129.100 237.201 C 129.265 237.201,129.352 235.626,129.293 233.701 C 129.103 227.487,128.941 226.876,128.870 232.100 M277.515 230.000 C 277.612 230.660,277.760 231.200,277.845 231.200 C 277.930 231.200,278.000 230.660,278.000 230.000 C 278.000 229.340,277.851 228.800,277.669 228.800 C 277.487 228.800,277.418 229.340,277.515 230.000 M304.526 231.969 C 304.567 232.501,304.870 233.010,305.200 233.099 C 305.596 233.206,305.646 233.149,305.346 232.930 C 305.097 232.749,304.793 232.240,304.672 231.800 C 304.499 231.169,304.468 231.205,304.526 231.969 M184.400 238.667 C 184.400 240.888,184.592 240.830,184.949 238.500 C 185.110 237.449,185.055 236.800,184.805 236.800 C 184.582 236.800,184.400 237.640,184.400 238.667 M362.184 254.000 C 362.184 263.570,362.236 267.485,362.300 262.700 C 362.363 257.915,362.363 250.085,362.300 245.300 C 362.236 240.515,362.184 244.430,362.184 254.000 M117.500 237.489 C 118.215 237.578,119.385 237.578,120.100 237.489 C 120.815 237.401,120.230 237.328,118.800 237.328 C 117.370 237.328,116.785 237.401,117.500 237.489 M110.940 243.600 C 110.940 245.470,111.009 246.235,111.093 245.300 C 111.177 244.365,111.177 242.835,111.093 241.900 C 111.009 240.965,110.940 241.730,110.940 243.600 M117.900 243.089 C 118.615 243.178,119.785 243.178,120.500 243.089 C 121.215 243.001,120.630 242.928,119.200 242.928 C 117.770 242.928,117.185 243.001,117.900 243.089 M131.100 243.093 C 132.035 243.177,133.565 243.177,134.500 243.093 C 135.435 243.009,134.670 242.940,132.800 242.940 C 130.930 242.940,130.165 243.009,131.100 243.093 M122.175 253.600 C 122.175 259.430,122.231 261.815,122.299 258.900 C 122.367 255.985,122.367 251.215,122.299 248.300 C 122.231 245.385,122.175 247.770,122.175 253.600 M128.878 252.676 C 128.835 257.998,128.935 262.437,129.100 262.539 C 129.265 262.641,129.353 259.457,129.295 255.463 C 129.121 243.486,128.961 242.416,128.878 252.676 M321.902 249.800 C 321.797 250.350,321.866 250.800,322.055 250.800 C 322.245 250.800,322.400 250.350,322.400 249.800 C 322.400 249.250,322.331 248.800,322.247 248.800 C 322.162 248.800,322.007 249.250,321.902 249.800 M213.742 253.800 C 213.741 255.780,213.808 256.640,213.892 255.712 C 213.976 254.784,213.977 253.164,213.895 252.112 C 213.812 251.060,213.743 251.820,213.742 253.800 M171.693 253.600 C 171.693 254.370,171.775 254.685,171.876 254.300 C 171.976 253.915,171.976 253.285,171.876 252.900 C 171.775 252.515,171.693 252.830,171.693 253.600 M66.171 262.000 C 66.171 266.950,66.228 268.975,66.299 266.500 C 66.369 264.025,66.369 259.975,66.299 257.500 C 66.228 255.025,66.171 257.050,66.171 262.000 M220.800 257.376 C 220.800 257.913,220.947 258.444,221.128 258.555 C 221.308 258.667,221.377 258.227,221.282 257.579 C 221.072 256.149,220.800 256.035,220.800 257.376 M222.996 262.038 C 223.433 262.567,223.820 263.057,223.856 263.127 C 223.891 263.196,224.026 263.081,224.157 262.870 C 224.287 262.660,223.900 262.170,223.297 261.782 L 222.200 261.076 222.996 262.038 M104.046 268.876 C 104.021 269.908,104.142 270.841,104.316 270.948 C 104.490 271.056,104.570 270.482,104.493 269.672 C 104.259 267.198,104.095 266.907,104.046 268.876 M217.500 274.689 C 218.215 274.778,219.385 274.778,220.100 274.689 C 220.815 274.601,220.230 274.528,218.800 274.528 C 217.370 274.528,216.785 274.601,217.500 274.689 " stroke="none" fill="#c4ac4c" fill-rule="evenodd"></path><path id="path8" d="" stroke="none" fill="#100d83c" fill-rule="evenodd"></path></g></svg>